<svg width="1040" height="174" viewBox="0 0 1040 174" fill="none" xmlns="http://www.w3.org/2000/svg">
<mask id="path-1-inside-1" fill="white">
<path fill-rule="evenodd" clip-rule="evenodd" d="M984 0H57V57.9169C51.0692 53.5681 43.751 51 35.8331 51C16.043 51 0 67.043 0 86.8331C0 106.623 16.043 122.666 35.8331 122.666C43.751 122.666 51.0692 120.098 57 115.749V174H984V116.682C989.679 120.463 996.499 122.666 1003.83 122.666C1023.62 122.666 1039.67 106.623 1039.67 86.8331C1039.67 67.043 1023.62 51 1003.83 51C996.499 51 989.679 53.2035 984 56.9846V0Z"/>
</mask>
<path fill-rule="evenodd" clip-rule="evenodd" d="M984 0H57V57.9169C51.0692 53.5681 43.751 51 35.8331 51C16.043 51 0 67.043 0 86.8331C0 106.623 16.043 122.666 35.8331 122.666C43.751 122.666 51.0692 120.098 57 115.749V174H984V116.682C989.679 120.463 996.499 122.666 1003.83 122.666C1023.62 122.666 1039.67 106.623 1039.67 86.8331C1039.67 67.043 1023.62 51 1003.83 51C996.499 51 989.679 53.2035 984 56.9846V0Z" fill="#B28298"/>
<path d="M57 0V-7.29633H49.7037V0H57ZM984 0H991.296V-7.29633H984V0ZM57 57.9169L52.6855 63.8009L64.2963 72.3146V57.9169H57ZM57 115.749H64.2963V101.352L52.6855 109.865L57 115.749ZM57 174H49.7037V181.296H57V174ZM984 174V181.296H991.296V174H984ZM984 116.682L988.044 110.608L976.704 103.058V116.682H984ZM984 56.9846H976.704V70.6079L988.044 63.0579L984 56.9846ZM57 7.29633H984V-7.29633H57V7.29633ZM64.2963 57.9169V0H49.7037V57.9169H64.2963ZM61.3145 52.0329C54.1746 46.7976 45.3545 43.7037 35.8331 43.7037V58.2963C42.1476 58.2963 47.9638 60.3387 52.6855 63.8009L61.3145 52.0329ZM35.8331 43.7037C12.0134 43.7037 -7.29633 63.0134 -7.29633 86.8331H7.29633C7.29633 71.0727 20.0727 58.2963 35.8331 58.2963V43.7037ZM-7.29633 86.8331C-7.29633 110.653 12.0134 129.962 35.8331 129.962V115.37C20.0727 115.37 7.29633 102.593 7.29633 86.8331H-7.29633ZM35.8331 129.962C45.3545 129.962 54.1746 126.869 61.3145 121.633L52.6855 109.865C47.9638 113.327 42.1476 115.37 35.8331 115.37V129.962ZM64.2963 174V115.749H49.7037V174H64.2963ZM984 166.704H57V181.296H984V166.704ZM976.704 116.682V174H991.296V116.682H976.704ZM979.956 122.755C986.796 127.309 995.016 129.962 1003.83 129.962V115.37C997.982 115.37 992.562 113.617 988.044 110.608L979.956 122.755ZM1003.83 129.962C1027.65 129.962 1046.96 110.653 1046.96 86.8331H1032.37C1032.37 102.593 1019.59 115.37 1003.83 115.37V129.962ZM1046.96 86.8331C1046.96 63.0134 1027.65 43.7037 1003.83 43.7037V58.2963C1019.59 58.2963 1032.37 71.0727 1032.37 86.8331H1046.96ZM1003.83 43.7037C995.016 43.7037 986.796 46.3574 979.956 50.9112L988.044 63.0579C992.562 60.0496 997.982 58.2963 1003.83 58.2963V43.7037ZM976.704 0V56.9846H991.296V0H976.704Z" fill="#B28298" mask="url(#path-1-inside-1)"/>
</svg>
