<svg width="1052" height="187" viewBox="0 0 1052 187" fill="none" xmlns="http://www.w3.org/2000/svg">
<mask id="path-1-inside-1" fill="white">
<path fill-rule="evenodd" clip-rule="evenodd" d="M996 13H69V70.9169C63.0692 66.5681 55.751 64 47.8331 64C28.043 64 12 80.043 12 99.8331C12 119.623 28.043 135.666 47.8331 135.666C55.751 135.666 63.0692 133.098 69 128.749V187H996V129.682C1001.68 133.463 1008.5 135.666 1015.83 135.666C1035.62 135.666 1051.67 119.623 1051.67 99.8331C1051.67 80.043 1035.62 64 1015.83 64C1008.5 64 1001.68 66.2035 996 69.9846V13Z"/>
</mask>
<path fill-rule="evenodd" clip-rule="evenodd" d="M996 13H69V70.9169C63.0692 66.5681 55.751 64 47.8331 64C28.043 64 12 80.043 12 99.8331C12 119.623 28.043 135.666 47.8331 135.666C55.751 135.666 63.0692 133.098 69 128.749V187H996V129.682C1001.68 133.463 1008.5 135.666 1015.83 135.666C1035.62 135.666 1051.67 119.623 1051.67 99.8331C1051.67 80.043 1035.62 64 1015.83 64C1008.5 64 1001.68 66.2035 996 69.9846V13Z" fill="#721545"/>
<path d="M69 13V5.70367H61.7037V13H69ZM996 13H1003.3V5.70367H996V13ZM69 70.9169L64.6855 76.8009L76.2963 85.3146V70.9169H69ZM69 128.749H76.2963V114.352L64.6855 122.865L69 128.749ZM69 187H61.7037V194.296H69V187ZM996 187V194.296H1003.3V187H996ZM996 129.682L1000.04 123.608L988.704 116.058V129.682H996ZM996 69.9846H988.704V83.6079L1000.04 76.0579L996 69.9846ZM69 20.2963H996V5.70367H69V20.2963ZM76.2963 70.9169V13H61.7037V70.9169H76.2963ZM73.3145 65.0329C66.1746 59.7976 57.3545 56.7037 47.8331 56.7037V71.2963C54.1476 71.2963 59.9638 73.3387 64.6855 76.8009L73.3145 65.0329ZM47.8331 56.7037C24.0134 56.7037 4.70367 76.0134 4.70367 99.8331H19.2963C19.2963 84.0727 32.0727 71.2963 47.8331 71.2963V56.7037ZM4.70367 99.8331C4.70367 123.653 24.0134 142.962 47.8331 142.962V128.37C32.0727 128.37 19.2963 115.593 19.2963 99.8331H4.70367ZM47.8331 142.962C57.3545 142.962 66.1746 139.869 73.3145 134.633L64.6855 122.865C59.9638 126.327 54.1476 128.37 47.8331 128.37V142.962ZM76.2963 187V128.749H61.7037V187H76.2963ZM996 179.704H69V194.296H996V179.704ZM988.704 129.682V187H1003.3V129.682H988.704ZM991.956 135.755C998.796 140.309 1007.02 142.962 1015.83 142.962V128.37C1009.98 128.37 1004.56 126.617 1000.04 123.608L991.956 135.755ZM1015.83 142.962C1039.65 142.962 1058.96 123.653 1058.96 99.8331H1044.37C1044.37 115.593 1031.59 128.37 1015.83 128.37V142.962ZM1058.96 99.8331C1058.96 76.0134 1039.65 56.7037 1015.83 56.7037V71.2963C1031.59 71.2963 1044.37 84.0727 1044.37 99.8331H1058.96ZM1015.83 56.7037C1007.02 56.7037 998.796 59.3574 991.956 63.9112L1000.04 76.0579C1004.56 73.0496 1009.98 71.2963 1015.83 71.2963V56.7037ZM988.704 13V69.9846H1003.3V13H988.704Z" fill="#721545" mask="url(#path-1-inside-1)"/>
<mask id="path-3-inside-2" fill="white">
<path fill-rule="evenodd" clip-rule="evenodd" d="M984 0H57V57.9169C51.0692 53.5681 43.751 51 35.8331 51C16.043 51 0 67.043 0 86.8331C0 106.623 16.043 122.666 35.8331 122.666C43.751 122.666 51.0692 120.098 57 115.749V174H984V116.682C989.679 120.463 996.499 122.666 1003.83 122.666C1023.62 122.666 1039.67 106.623 1039.67 86.8331C1039.67 67.043 1023.62 51 1003.83 51C996.499 51 989.679 53.2035 984 56.9846V0Z"/>
</mask>
<path fill-rule="evenodd" clip-rule="evenodd" d="M984 0H57V57.9169C51.0692 53.5681 43.751 51 35.8331 51C16.043 51 0 67.043 0 86.8331C0 106.623 16.043 122.666 35.8331 122.666C43.751 122.666 51.0692 120.098 57 115.749V174H984V116.682C989.679 120.463 996.499 122.666 1003.83 122.666C1023.62 122.666 1039.67 106.623 1039.67 86.8331C1039.67 67.043 1023.62 51 1003.83 51C996.499 51 989.679 53.2035 984 56.9846V0Z" fill="#FFB566"/>
<path d="M57 0V-7.29633H49.7037V0H57ZM984 0H991.296V-7.29633H984V0ZM57 57.9169L52.6855 63.8009L64.2963 72.3146V57.9169H57ZM57 115.749H64.2963V101.352L52.6855 109.865L57 115.749ZM57 174H49.7037V181.296H57V174ZM984 174V181.296H991.296V174H984ZM984 116.682L988.044 110.608L976.704 103.058V116.682H984ZM984 56.9846H976.704V70.6079L988.044 63.0579L984 56.9846ZM57 7.29633H984V-7.29633H57V7.29633ZM64.2963 57.9169V0H49.7037V57.9169H64.2963ZM61.3145 52.0329C54.1746 46.7976 45.3545 43.7037 35.8331 43.7037V58.2963C42.1476 58.2963 47.9638 60.3387 52.6855 63.8009L61.3145 52.0329ZM35.8331 43.7037C12.0134 43.7037 -7.29633 63.0134 -7.29633 86.8331H7.29633C7.29633 71.0727 20.0727 58.2963 35.8331 58.2963V43.7037ZM-7.29633 86.8331C-7.29633 110.653 12.0134 129.962 35.8331 129.962V115.37C20.0727 115.37 7.29633 102.593 7.29633 86.8331H-7.29633ZM35.8331 129.962C45.3545 129.962 54.1746 126.869 61.3145 121.633L52.6855 109.865C47.9638 113.327 42.1476 115.37 35.8331 115.37V129.962ZM64.2963 174V115.749H49.7037V174H64.2963ZM984 166.704H57V181.296H984V166.704ZM976.704 116.682V174H991.296V116.682H976.704ZM979.956 122.755C986.796 127.309 995.016 129.962 1003.83 129.962V115.37C997.982 115.37 992.562 113.617 988.044 110.608L979.956 122.755ZM1003.83 129.962C1027.65 129.962 1046.96 110.653 1046.96 86.8331H1032.37C1032.37 102.593 1019.59 115.37 1003.83 115.37V129.962ZM1046.96 86.8331C1046.96 63.0134 1027.65 43.7037 1003.83 43.7037V58.2963C1019.59 58.2963 1032.37 71.0727 1032.37 86.8331H1046.96ZM1003.83 43.7037C995.016 43.7037 986.796 46.3574 979.956 50.9112L988.044 63.0579C992.562 60.0496 997.982 58.2963 1003.83 58.2963V43.7037ZM976.704 0V56.9846H991.296V0H976.704Z" fill="#721545" mask="url(#path-3-inside-2)"/>
</svg>
