<svg width="149" height="147" viewBox="0 0 149 147" fill="none" xmlns="http://www.w3.org/2000/svg">
<path d="M51.3334 15.762L35.8334 32.762L39.8334 20.762L51.3334 15.762Z" fill="#2BCC28"/>
<path d="M57.3334 20.762L66.8334 14.262L67.8334 12.762L94.8334 21.762H103.833L115.333 27.262L119.833 41.762L128.833 60.762L128.333 67.762L126.833 70.762L122.333 72.262V80.262L119.833 84.762L113.833 86.762L107.833 85.762L100.333 80.762L94.8334 74.762L92.3334 66.262H72.8334L66.8334 59.762H60.3334H50.3334L46.3334 52.762V50.762L50.3334 46.262L57.3334 20.762Z" fill="#2BCC28"/>
<path d="M37.8333 24.762C35.8333 29.762 36.8333 27.262 35.3333 32.262C33.8333 37.262 3.33333 105.762 3.33333 105.762C3.33333 105.762 0.333333 110.762 3.33333 113.262C6.33333 115.762 16.8333 117.762 16.8333 117.762C16.8333 117.762 23.3333 119.262 27.3333 117.762C31.3333 116.262 59.8333 70.262 59.8333 70.262L76.3333 134.762C76.3333 134.762 79.3333 143.262 101.833 144.262C124.333 145.262 146.833 102.762 146.833 102.762L127.333 58.262C127.333 58.262 120.833 45.762 119.833 43.762C118.833 41.762 118.833 30.762 115.833 27.762C112.833 24.762 112.833 23.762 106.333 22.262C99.8333 20.762 94.3333 22.262 94.3333 22.262C94.3333 22.262 77.8333 14.762 73.8333 13.762C69.8333 12.762 62.8333 12.262 55.3333 13.762C47.8333 15.262 39.8333 19.762 37.8333 24.762Z" stroke="black" stroke-width="4" stroke-linejoin="round"/>
<ellipse cx="13.8334" cy="109.262" rx="10.5" ry="6.5" fill="black"/>
<path d="M40.768 73L24.0218 118.33L28.4764 117.692L40.768 73Z" fill="black"/>
<path d="M119.129 39.5336C118.329 41.4627 117.559 44.0496 115.064 44.0496C113.806 44.0496 112.301 42.2432 113.96 42.2432C115.987 42.2432 116.963 41.9839 118.326 43.4977C119.746 45.075 120.901 46.7569 122.064 48.5657C125.679 54.189 128.517 61.2125 128.161 67.9846C127.94 72.1842 121.838 72.6391 119.129 71.0455C117.509 70.0929 114.946 67.3496 113.91 65.827C112.226 63.35 116.583 64.0748 117.548 64.3718C120.015 65.1309 121.08 66.1957 121.487 68.5366C122.222 72.7609 123.848 81.2825 120.007 84.6438C117.738 86.6291 111.063 87.3099 108.416 85.9484C100.893 82.0796 95.7548 77.8825 93.036 69.791C91.7952 66.0981 91.8591 62.5433 91.5558 58.7518C91.3451 56.1176 90.6777 53.5922 90.6777 50.924C90.6777 47.2019 91.1282 43.6023 92.0325 39.9852" stroke="black" stroke-width="2" stroke-linecap="round" stroke-linejoin="round"/>
<path d="M82.2726 100.723C81.2695 103.138 78.4371 107.66 79.7517 110.435C80.5567 112.135 83.6963 113.656 85.4607 112.61C87.1933 111.584 86.6095 108.171 84.2744 109.249C82.9247 109.872 81.2253 113.648 81.0368 115.156C80.3435 120.703 84.4123 128.304 90.725 128.304" stroke="black" stroke-width="2" stroke-linecap="round" stroke-linejoin="round"/>
<path d="M61.8088 11.7499C58.7428 11.6363 51.2431 9.71397 51.1321 5.71948C51.0644 3.28113 52.646 2.05584 54.9382 1.41914C57.7797 0.629827 59.5845 0.726038 59.5845 3.74231" stroke="black" stroke-linecap="round" stroke-linejoin="round"/>
<path d="M74 41C74 38.2386 71.7614 36 69 36C66.2386 36 64 38.2386 64 41" stroke="black" stroke-width="4"/>
<path d="M41.8804 104.92C41.683 103.819 35.7141 90.805 35.7141 90.805L30.5 104.92C30.5 104.92 29.4761 106.69 31.8684 109.896C34.2608 113.102 35.3613 112.904 36.8625 112.408C38.3636 111.911 39.9665 110.715 40.8696 109.417C41.7727 108.12 42.0777 106.02 41.8804 104.92Z" fill="#2BCC28"/>
</svg>
