<svg width="106" height="28" viewBox="0 0 106 28" fill="none" xmlns="http://www.w3.org/2000/svg">
<path fill-rule="evenodd" clip-rule="evenodd" d="M15.7103 8C15.7109 7.97043 15.7111 7.9408 15.7111 7.91111C15.7111 5.19878 13.5124 3 10.8 3C8.0877 3 5.88892 5.19878 5.88892 7.91111C5.88892 7.9408 5.88918 7.97043 5.8897 8H3V23H93.0008C93.0482 25.6713 95.2285 27.8222 97.9111 27.8222C100.594 27.8222 102.774 25.6713 102.821 23H106V8H15.7103Z" fill="#851A54"/>
<mask id="path-2-inside-1" fill="white">
<path fill-rule="evenodd" clip-rule="evenodd" d="M12.7103 5C12.7109 4.97043 12.7111 4.9408 12.7111 4.91111C12.7111 2.19878 10.5124 0 7.80003 0C5.0877 0 2.88892 2.19878 2.88892 4.91111C2.88892 4.9408 2.88918 4.97043 2.8897 5H0V20H90.0008C90.0482 22.6713 92.2285 24.8222 94.9111 24.8222C97.5938 24.8222 99.774 22.6713 99.8214 20H103V5H12.7103Z"/>
</mask>
<path fill-rule="evenodd" clip-rule="evenodd" d="M12.7103 5C12.7109 4.97043 12.7111 4.9408 12.7111 4.91111C12.7111 2.19878 10.5124 0 7.80003 0C5.0877 0 2.88892 2.19878 2.88892 4.91111C2.88892 4.9408 2.88918 4.97043 2.8897 5H0V20H90.0008C90.0482 22.6713 92.2285 24.8222 94.9111 24.8222C97.5938 24.8222 99.774 22.6713 99.8214 20H103V5H12.7103Z" fill="#FFB566"/>
<path d="M12.7103 5L11.7105 4.98226L11.6925 6H12.7103V5ZM2.8897 5V6H3.90761L3.88955 4.98225L2.8897 5ZM0 5V4H-1V5H0ZM0 20H-1V21H0V20ZM90.0008 20L91.0006 19.9823L90.9832 19H90.0008V20ZM99.8214 20V19H98.839L98.8216 19.9823L99.8214 20ZM103 20V21H104V20H103ZM103 5H104V4H103V5ZM13.7102 5.01774C13.7108 4.98228 13.7111 4.94673 13.7111 4.91111H11.7111C11.7111 4.93487 11.7109 4.95859 11.7105 4.98226L13.7102 5.01774ZM13.7111 4.91111C13.7111 1.64649 11.0646 -1 7.80003 -1V1C9.96007 1 11.7111 2.75106 11.7111 4.91111H13.7111ZM7.80003 -1C4.53541 -1 1.88892 1.64649 1.88892 4.91111H3.88892C3.88892 2.75106 5.63998 1 7.80003 1V-1ZM1.88892 4.91111C1.88892 4.94672 1.88923 4.98226 1.88986 5.01775L3.88955 4.98225C3.88913 4.9586 3.88892 4.93489 3.88892 4.91111H1.88892ZM0 6H2.8897V4H0V6ZM1 20V5H-1V20H1ZM90.0008 19H0V21H90.0008V19ZM89.0009 20.0177C89.058 23.2334 91.6821 25.8222 94.9111 25.8222V23.8222C92.7748 23.8222 91.0384 22.1093 91.0006 19.9823L89.0009 20.0177ZM94.9111 25.8222C98.1401 25.8222 100.764 23.2334 100.821 20.0177L98.8216 19.9823C98.7838 22.1093 97.0474 23.8222 94.9111 23.8222V25.8222ZM103 19H99.8214V21H103V19ZM102 5V20H104V5H102ZM12.7103 6H103V4H12.7103V6Z" fill="#851A54" mask="url(#path-2-inside-1)"/>
</svg>
