<svg width="1052" height="121" viewBox="0 0 1052 121" fill="none" xmlns="http://www.w3.org/2000/svg">
<mask id="path-1-inside-1" fill="white">
<path fill-rule="evenodd" clip-rule="evenodd" d="M996 12H69V37.4353C63.0692 33.0865 55.751 30.5184 47.8331 30.5184C28.043 30.5184 12 46.5614 12 66.3514C12 86.1415 28.043 102.185 47.8331 102.185C55.751 102.185 63.0692 99.6163 69 95.2676V121H996V96.6816C1001.68 100.463 1008.5 102.666 1015.83 102.666C1035.62 102.666 1051.67 86.6231 1051.67 66.8331C1051.67 47.043 1035.62 31 1015.83 31C1008.5 31 1001.68 33.2035 996 36.9846V12Z"/>
</mask>
<path fill-rule="evenodd" clip-rule="evenodd" d="M996 12H69V37.4353C63.0692 33.0865 55.751 30.5184 47.8331 30.5184C28.043 30.5184 12 46.5614 12 66.3514C12 86.1415 28.043 102.185 47.8331 102.185C55.751 102.185 63.0692 99.6163 69 95.2676V121H996V96.6816C1001.68 100.463 1008.5 102.666 1015.83 102.666C1035.62 102.666 1051.67 86.6231 1051.67 66.8331C1051.67 47.043 1035.62 31 1015.83 31C1008.5 31 1001.68 33.2035 996 36.9846V12Z" fill="#721545"/>
<path d="M69 12V4.70367H61.7037V12H69ZM996 12H1003.3V4.70367H996V12ZM69 37.4353L64.6855 43.3193L76.2963 51.833V37.4353H69ZM69 95.2676H76.2963V80.8699L64.6855 89.3836L69 95.2676ZM69 121H61.7037V128.296H69V121ZM996 121V128.296H1003.3V121H996ZM996 96.6816L1000.04 90.6082L988.704 83.0583V96.6816H996ZM996 36.9846H988.704V50.6079L1000.04 43.0579L996 36.9846ZM69 19.2963H996V4.70367H69V19.2963ZM76.2963 37.4353V12H61.7037V37.4353H76.2963ZM73.3145 31.5513C66.1746 26.316 57.3545 23.222 47.8331 23.222V37.8147C54.1476 37.8147 59.9638 39.8571 64.6855 43.3193L73.3145 31.5513ZM47.8331 23.222C24.0134 23.222 4.70367 42.5317 4.70367 66.3514H19.2963C19.2963 50.591 32.0727 37.8147 47.8331 37.8147V23.222ZM4.70367 66.3514C4.70367 90.1711 24.0134 109.481 47.8331 109.481V94.8882C32.0727 94.8882 19.2963 82.1118 19.2963 66.3514H4.70367ZM47.8331 109.481C57.3545 109.481 66.1746 106.387 73.3145 101.152L64.6855 89.3836C59.9638 92.8458 54.1476 94.8882 47.8331 94.8882V109.481ZM76.2963 121V95.2676H61.7037V121H76.2963ZM996 113.704H69V128.296H996V113.704ZM988.704 96.6816V121H1003.3V96.6816H988.704ZM991.956 102.755C998.796 107.309 1007.02 109.962 1015.83 109.962V95.3698C1009.98 95.3698 1004.56 93.6166 1000.04 90.6082L991.956 102.755ZM1015.83 109.962C1039.65 109.962 1058.96 90.6528 1058.96 66.8331H1044.37C1044.37 82.5935 1031.59 95.3698 1015.83 95.3698V109.962ZM1058.96 66.8331C1058.96 43.0134 1039.65 23.7037 1015.83 23.7037V38.2963C1031.59 38.2963 1044.37 51.0727 1044.37 66.8331H1058.96ZM1015.83 23.7037C1007.02 23.7037 998.796 26.3574 991.956 30.9112L1000.04 43.0579C1004.56 40.0496 1009.98 38.2963 1015.83 38.2963V23.7037ZM988.704 12V36.9846H1003.3V12H988.704Z" fill="#721545" mask="url(#path-1-inside-1)"/>
<mask id="path-3-inside-2" fill="white">
<path fill-rule="evenodd" clip-rule="evenodd" d="M984 0H57V25.4353C51.0692 21.0865 43.751 18.5184 35.8331 18.5184C16.043 18.5184 0 34.5614 0 54.3514C0 74.1415 16.043 90.1845 35.8331 90.1845C43.751 90.1845 51.0692 87.6163 57 83.2676V109H984V84.6816C989.679 88.4626 996.499 90.6661 1003.83 90.6661C1023.62 90.6661 1039.67 74.6231 1039.67 54.8331C1039.67 35.043 1023.62 19 1003.83 19C996.499 19 989.679 21.2035 984 24.9846V0Z"/>
</mask>
<path fill-rule="evenodd" clip-rule="evenodd" d="M984 0H57V25.4353C51.0692 21.0865 43.751 18.5184 35.8331 18.5184C16.043 18.5184 0 34.5614 0 54.3514C0 74.1415 16.043 90.1845 35.8331 90.1845C43.751 90.1845 51.0692 87.6163 57 83.2676V109H984V84.6816C989.679 88.4626 996.499 90.6661 1003.83 90.6661C1023.62 90.6661 1039.67 74.6231 1039.67 54.8331C1039.67 35.043 1023.62 19 1003.83 19C996.499 19 989.679 21.2035 984 24.9846V0Z" fill="#FFB566"/>
<path d="M57 0V-7.29633H49.7037V0H57ZM984 0H991.296V-7.29633H984V0ZM57 25.4353L52.6855 31.3193L64.2963 39.833V25.4353H57ZM57 83.2676H64.2963V68.8699L52.6855 77.3836L57 83.2676ZM57 109H49.7037V116.296H57V109ZM984 109V116.296H991.296V109H984ZM984 84.6816L988.044 78.6082L976.704 71.0583V84.6816H984ZM984 24.9846H976.704V38.6079L988.044 31.0579L984 24.9846ZM57 7.29633H984V-7.29633H57V7.29633ZM64.2963 25.4353V0H49.7037V25.4353H64.2963ZM61.3145 19.5513C54.1746 14.316 45.3545 11.222 35.8331 11.222V25.8147C42.1476 25.8147 47.9638 27.8571 52.6855 31.3193L61.3145 19.5513ZM35.8331 11.222C12.0134 11.222 -7.29633 30.5317 -7.29633 54.3514H7.29633C7.29633 38.591 20.0727 25.8147 35.8331 25.8147V11.222ZM-7.29633 54.3514C-7.29633 78.1711 12.0134 97.4808 35.8331 97.4808V82.8882C20.0727 82.8882 7.29633 70.1118 7.29633 54.3514H-7.29633ZM35.8331 97.4808C45.3545 97.4808 54.1746 94.3869 61.3145 89.1516L52.6855 77.3836C47.9638 80.8458 42.1476 82.8882 35.8331 82.8882V97.4808ZM64.2963 109V83.2676H49.7037V109H64.2963ZM984 101.704H57V116.296H984V101.704ZM976.704 84.6816V109H991.296V84.6816H976.704ZM979.956 90.755C986.796 95.3087 995.016 97.9625 1003.83 97.9625V83.3698C997.982 83.3698 992.562 81.6166 988.044 78.6082L979.956 90.755ZM1003.83 97.9625C1027.65 97.9625 1046.96 78.6528 1046.96 54.8331H1032.37C1032.37 70.5935 1019.59 83.3698 1003.83 83.3698V97.9625ZM1046.96 54.8331C1046.96 31.0134 1027.65 11.7037 1003.83 11.7037V26.2963C1019.59 26.2963 1032.37 39.0727 1032.37 54.8331H1046.96ZM1003.83 11.7037C995.016 11.7037 986.796 14.3574 979.956 18.9112L988.044 31.0579C992.562 28.0496 997.982 26.2963 1003.83 26.2963V11.7037ZM976.704 0V24.9846H991.296V0H976.704Z" fill="#721545" mask="url(#path-3-inside-2)"/>
</svg>
