<svg width="1040" height="109" viewBox="0 0 1040 109" fill="none" xmlns="http://www.w3.org/2000/svg">
<mask id="path-1-inside-1" fill="white">
<path fill-rule="evenodd" clip-rule="evenodd" d="M984 0H57V25.4353C51.0692 21.0865 43.751 18.5184 35.8331 18.5184C16.043 18.5184 0 34.5614 0 54.3514C0 74.1415 16.043 90.1845 35.8331 90.1845C43.751 90.1845 51.0692 87.6163 57 83.2676V109H984V84.6816C989.679 88.4626 996.499 90.6661 1003.83 90.6661C1023.62 90.6661 1039.67 74.6231 1039.67 54.8331C1039.67 35.043 1023.62 19 1003.83 19C996.499 19 989.679 21.2035 984 24.9846V0Z"/>
</mask>
<path fill-rule="evenodd" clip-rule="evenodd" d="M984 0H57V25.4353C51.0692 21.0865 43.751 18.5184 35.8331 18.5184C16.043 18.5184 0 34.5614 0 54.3514C0 74.1415 16.043 90.1845 35.8331 90.1845C43.751 90.1845 51.0692 87.6163 57 83.2676V109H984V84.6816C989.679 88.4626 996.499 90.6661 1003.83 90.6661C1023.62 90.6661 1039.67 74.6231 1039.67 54.8331C1039.67 35.043 1023.62 19 1003.83 19C996.499 19 989.679 21.2035 984 24.9846V0Z" fill="#B28298"/>
<path d="M57 0V-7.29633H49.7037V0H57ZM984 0H991.296V-7.29633H984V0ZM57 25.4353L52.6855 31.3193L64.2963 39.833V25.4353H57ZM57 83.2676H64.2963V68.8699L52.6855 77.3836L57 83.2676ZM57 109H49.7037V116.296H57V109ZM984 109V116.296H991.296V109H984ZM984 84.6816L988.044 78.6082L976.704 71.0583V84.6816H984ZM984 24.9846H976.704V38.6079L988.044 31.0579L984 24.9846ZM57 7.29633H984V-7.29633H57V7.29633ZM64.2963 25.4353V0H49.7037V25.4353H64.2963ZM61.3145 19.5513C54.1746 14.316 45.3545 11.222 35.8331 11.222V25.8147C42.1476 25.8147 47.9638 27.8571 52.6855 31.3193L61.3145 19.5513ZM35.8331 11.222C12.0134 11.222 -7.29633 30.5317 -7.29633 54.3514H7.29633C7.29633 38.591 20.0727 25.8147 35.8331 25.8147V11.222ZM-7.29633 54.3514C-7.29633 78.1711 12.0134 97.4808 35.8331 97.4808V82.8882C20.0727 82.8882 7.29633 70.1118 7.29633 54.3514H-7.29633ZM35.8331 97.4808C45.3545 97.4808 54.1746 94.3869 61.3145 89.1516L52.6855 77.3836C47.9638 80.8458 42.1476 82.8882 35.8331 82.8882V97.4808ZM64.2963 109V83.2676H49.7037V109H64.2963ZM984 101.704H57V116.296H984V101.704ZM976.704 84.6816V109H991.296V84.6816H976.704ZM979.956 90.755C986.796 95.3087 995.016 97.9625 1003.83 97.9625V83.3698C997.982 83.3698 992.562 81.6166 988.044 78.6082L979.956 90.755ZM1003.83 97.9625C1027.65 97.9625 1046.96 78.6528 1046.96 54.8331H1032.37C1032.37 70.5935 1019.59 83.3698 1003.83 83.3698V97.9625ZM1046.96 54.8331C1046.96 31.0134 1027.65 11.7037 1003.83 11.7037V26.2963C1019.59 26.2963 1032.37 39.0727 1032.37 54.8331H1046.96ZM1003.83 11.7037C995.016 11.7037 986.796 14.3574 979.956 18.9112L988.044 31.0579C992.562 28.0496 997.982 26.2963 1003.83 26.2963V11.7037ZM976.704 0V24.9846H991.296V0H976.704Z" fill="#B28298" mask="url(#path-1-inside-1)"/>
</svg>
