<svg width="82" height="89" viewBox="0 0 82 89" fill="none" xmlns="http://www.w3.org/2000/svg">
<rect x="4.225" y="4.225" width="76.55" height="83.55" fill="black" stroke="black" stroke-width="2.45"/>
<rect x="1.225" y="1.225" width="76.55" height="83.55" fill="#F3EFEB" stroke="#8C7BF8" stroke-width="2.45"/>
<path d="M7.84 15.36L7.712 15.84H8.824L8.704 15.36C8.62933 15.0987 8.55733 14.8213 8.488 14.528C8.41867 14.2347 8.34933 13.952 8.28 13.68H8.248C8.184 13.9573 8.11733 14.2427 8.048 14.536C7.984 14.824 7.91467 15.0987 7.84 15.36ZM5.952 18L7.584 12.784H9L10.632 18H9.384L9.064 16.76H7.472L7.152 18H5.952ZM12.2979 18.096C11.8659 18.096 11.5513 17.9547 11.3539 17.672C11.1619 17.3893 11.0659 16.9973 11.0659 16.496V14.032H12.2419V16.344C12.2419 16.632 12.2819 16.8293 12.3619 16.936C12.4419 17.0427 12.5673 17.096 12.7379 17.096C12.8873 17.096 13.0126 17.0613 13.1139 16.992C13.2153 16.9227 13.3246 16.8107 13.4419 16.656V14.032H14.6179V18H13.6579L13.5699 17.448H13.5459C13.3753 17.6507 13.1913 17.8107 12.9939 17.928C12.8019 18.04 12.5699 18.096 12.2979 18.096ZM17.0688 18.096C16.8235 18.096 16.5995 18.048 16.3968 17.952C16.1995 17.856 16.0288 17.72 15.8848 17.544C15.7461 17.3627 15.6368 17.144 15.5568 16.888C15.4821 16.632 15.4448 16.3413 15.4448 16.016C15.4448 15.6907 15.4901 15.4 15.5808 15.144C15.6768 14.888 15.7995 14.672 15.9488 14.496C16.1035 14.3147 16.2795 14.176 16.4768 14.08C16.6795 13.984 16.8848 13.936 17.0928 13.936C17.3168 13.936 17.5008 13.9733 17.6448 14.048C17.7888 14.1227 17.9301 14.224 18.0688 14.352L18.0208 13.744V12.392H19.1968V18H18.2368L18.1568 17.608H18.1248C17.9861 17.7467 17.8235 17.864 17.6368 17.96C17.4501 18.0507 17.2608 18.096 17.0688 18.096ZM17.3728 17.136C17.5008 17.136 17.6155 17.1093 17.7168 17.056C17.8235 17.0027 17.9248 16.9093 18.0208 16.776V15.152C17.9141 15.056 17.8048 14.9893 17.6928 14.952C17.5808 14.9147 17.4715 14.896 17.3648 14.896C17.1781 14.896 17.0128 14.9867 16.8688 15.168C16.7248 15.344 16.6528 15.6213 16.6528 16C16.6528 16.3947 16.7141 16.6827 16.8368 16.864C16.9648 17.0453 17.1435 17.136 17.3728 17.136ZM22.0148 18.096C21.7321 18.096 21.4681 18.0507 21.2228 17.96C20.9774 17.864 20.7641 17.728 20.5828 17.552C20.4014 17.3707 20.2601 17.152 20.1588 16.896C20.0574 16.64 20.0068 16.3467 20.0068 16.016C20.0068 15.696 20.0601 15.408 20.1668 15.152C20.2734 14.8907 20.4121 14.672 20.5828 14.496C20.7588 14.3147 20.9588 14.176 21.1828 14.08C21.4068 13.984 21.6388 13.936 21.8788 13.936C22.1614 13.936 22.4068 13.984 22.6148 14.08C22.8281 14.176 23.0041 14.3093 23.1428 14.48C23.2868 14.6507 23.3934 14.8533 23.4628 15.088C23.5321 15.3173 23.5668 15.568 23.5668 15.84C23.5668 15.9467 23.5614 16.048 23.5508 16.144C23.5401 16.24 23.5294 16.312 23.5188 16.36H21.1428C21.1961 16.648 21.3134 16.8613 21.4948 17C21.6814 17.1333 21.9081 17.2 22.1748 17.2C22.4574 17.2 22.7428 17.112 23.0308 16.936L23.4228 17.648C23.2201 17.7867 22.9934 17.896 22.7428 17.976C22.4974 18.056 22.2548 18.096 22.0148 18.096ZM21.1348 15.584H22.5668C22.5668 15.36 22.5161 15.1787 22.4148 15.04C22.3134 14.9013 22.1428 14.832 21.9028 14.832C21.7161 14.832 21.5508 14.8933 21.4068 15.016C21.2681 15.1387 21.1774 15.328 21.1348 15.584ZM24.3794 18V14.032H25.3394L25.4194 14.536H25.4514C25.622 14.376 25.8087 14.2373 26.0114 14.12C26.214 13.9973 26.4514 13.936 26.7234 13.936C27.1554 13.936 27.4674 14.0773 27.6594 14.36C27.8567 14.6427 27.9554 15.0347 27.9554 15.536V18H26.7794V15.688C26.7794 15.4 26.7394 15.2027 26.6594 15.096C26.5847 14.9893 26.462 14.936 26.2914 14.936C26.142 14.936 26.014 14.9707 25.9074 15.04C25.8007 15.104 25.6834 15.1973 25.5554 15.32V18H24.3794ZM31.9751 18.096C31.6924 18.096 31.4417 18.056 31.2231 17.976C31.0097 17.896 30.8284 17.7893 30.6791 17.656C30.5351 17.5173 30.4257 17.36 30.3511 17.184C30.2764 17.0027 30.2391 16.8107 30.2391 16.608C30.2391 16.4267 30.2631 16.264 30.3111 16.12C30.3644 15.9707 30.4337 15.8373 30.5191 15.72C30.6097 15.6027 30.7111 15.496 30.8231 15.4C30.9404 15.304 31.0631 15.216 31.1911 15.136C31.0897 14.9493 31.0097 14.7653 30.9511 14.584C30.8977 14.3973 30.8711 14.2213 30.8711 14.056C30.8711 13.8693 30.9031 13.6933 30.9671 13.528C31.0364 13.3627 31.1324 13.2187 31.2551 13.096C31.3777 12.968 31.5244 12.8693 31.6951 12.8C31.8711 12.7253 32.0684 12.688 32.2871 12.688C32.6817 12.688 32.9937 12.7947 33.2231 13.008C33.4524 13.2213 33.5671 13.5093 33.5671 13.872C33.5671 14.0427 33.5351 14.2 33.4711 14.344C33.4124 14.4827 33.3297 14.6133 33.2231 14.736C33.1217 14.8533 33.0044 14.9627 32.8711 15.064C32.7431 15.1653 32.6124 15.2613 32.4791 15.352C32.6284 15.5227 32.7911 15.6907 32.9671 15.856C33.1484 16.016 33.3351 16.1653 33.5271 16.304C33.6604 16.1333 33.7777 15.944 33.8791 15.736C33.9804 15.528 34.0631 15.3013 34.1271 15.056H35.1991C35.1031 15.376 34.9831 15.6827 34.8391 15.976C34.7004 16.264 34.5297 16.544 34.3271 16.816C34.4924 16.9013 34.6497 16.9733 34.7991 17.032C34.9537 17.0853 35.0977 17.1227 35.2311 17.144L34.9511 18.096C34.7324 18.0533 34.5111 17.9867 34.2871 17.896C34.0631 17.8053 33.8391 17.696 33.6151 17.568C33.3911 17.7333 33.1431 17.864 32.8711 17.96C32.6044 18.0507 32.3057 18.096 31.9751 18.096ZM31.8391 14.048C31.8391 14.144 31.8524 14.2453 31.8791 14.352C31.9111 14.4587 31.9537 14.5653 32.0071 14.672C32.1937 14.56 32.3511 14.4427 32.4791 14.32C32.6071 14.1973 32.6711 14.048 32.6711 13.872C32.6711 13.7493 32.6417 13.6507 32.5831 13.576C32.5244 13.5013 32.4337 13.464 32.3111 13.464C32.1777 13.464 32.0657 13.5173 31.9751 13.624C31.8844 13.7253 31.8391 13.8667 31.8391 14.048ZM32.1271 17.2C32.3457 17.2 32.5644 17.1307 32.7831 16.992C32.5804 16.8267 32.3884 16.6533 32.2071 16.472C32.0257 16.2907 31.8577 16.104 31.7031 15.912C31.5964 16.0027 31.5111 16.0987 31.4471 16.2C31.3831 16.3013 31.3511 16.4133 31.3511 16.536C31.3511 16.7333 31.4204 16.8933 31.5591 17.016C31.7031 17.1387 31.8924 17.2 32.1271 17.2ZM39.7686 18.096C39.4379 18.096 39.1259 18.04 38.8326 17.928C38.5392 17.8107 38.2806 17.64 38.0566 17.416C37.8379 17.192 37.6646 16.9147 37.5366 16.584C37.4086 16.248 37.3446 15.8613 37.3446 15.424C37.3446 14.992 37.4112 14.608 37.5446 14.272C37.6779 13.9307 37.8566 13.6427 38.0806 13.408C38.3046 13.1733 38.5659 12.9947 38.8646 12.872C39.1632 12.7493 39.4779 12.688 39.8086 12.688C40.1446 12.688 40.4459 12.7573 40.7126 12.896C40.9792 13.0293 41.2006 13.1867 41.3766 13.368L40.7526 14.12C40.6192 13.9973 40.4779 13.8987 40.3286 13.824C40.1846 13.744 40.0192 13.704 39.8326 13.704C39.6566 13.704 39.4886 13.744 39.3286 13.824C39.1739 13.8987 39.0379 14.008 38.9206 14.152C38.8086 14.296 38.7179 14.472 38.6486 14.68C38.5846 14.888 38.5526 15.1227 38.5526 15.384C38.5526 15.9227 38.6672 16.3413 38.8966 16.64C39.1259 16.9333 39.4326 17.08 39.8166 17.08C40.0299 17.08 40.2192 17.0347 40.3846 16.944C40.5552 16.848 40.7046 16.7307 40.8326 16.592L41.4566 17.328C41.0192 17.84 40.4566 18.096 39.7686 18.096ZM42.1528 18V12.392H43.3288V13.768L43.2728 14.48C43.4221 14.3467 43.5955 14.224 43.7928 14.112C43.9901 13.9947 44.2248 13.936 44.4968 13.936C44.9288 13.936 45.2408 14.0773 45.4328 14.36C45.6301 14.6427 45.7288 15.0347 45.7288 15.536V18H44.5528V15.688C44.5528 15.4 44.5128 15.2027 44.4328 15.096C44.3581 14.9893 44.2355 14.936 44.0648 14.936C43.9155 14.936 43.7875 14.9707 43.6808 15.04C43.5741 15.104 43.4568 15.1973 43.3288 15.32V18H42.1528ZM46.7231 18V14.032H47.8991V18H46.7231ZM47.3071 13.448C47.1098 13.448 46.9471 13.392 46.8191 13.28C46.6911 13.1627 46.6271 13.0133 46.6271 12.832C46.6271 12.6507 46.6911 12.504 46.8191 12.392C46.9471 12.28 47.1098 12.224 47.3071 12.224C47.5098 12.224 47.6725 12.28 47.7951 12.392C47.9231 12.504 47.9871 12.6507 47.9871 12.832C47.9871 13.0133 47.9231 13.1627 47.7951 13.28C47.6725 13.392 47.5098 13.448 47.3071 13.448ZM50.6621 18.096C50.3847 18.096 50.1261 18.0507 49.8861 17.96C49.6514 17.864 49.4461 17.728 49.2701 17.552C49.0941 17.376 48.9554 17.16 48.8541 16.904C48.7527 16.6427 48.7021 16.3467 48.7021 16.016C48.7021 15.6853 48.7581 15.392 48.8701 15.136C48.9821 14.8747 49.1314 14.656 49.3181 14.48C49.5101 14.304 49.7314 14.1707 49.9821 14.08C50.2327 13.984 50.4941 13.936 50.7661 13.936C51.0114 13.936 51.2274 13.976 51.4141 14.056C51.6061 14.136 51.7767 14.2373 51.9261 14.36L51.3741 15.12C51.1874 14.9653 51.0087 14.888 50.8381 14.888C50.5501 14.888 50.3234 14.9893 50.1581 15.192C49.9927 15.3947 49.9101 15.6693 49.9101 16.016C49.9101 16.3627 49.9927 16.6373 50.1581 16.84C50.3287 17.0427 50.5421 17.144 50.7981 17.144C50.9261 17.144 51.0487 17.1173 51.1661 17.064C51.2887 17.0053 51.4034 16.936 51.5101 16.856L51.9741 17.624C51.7767 17.7947 51.5634 17.9173 51.3341 17.992C51.1047 18.0613 50.8807 18.096 50.6621 18.096ZM52.6684 18V12.392H53.8124V15.608H53.8444L55.1004 14.032H56.3804L54.9884 15.664L56.4844 18H55.2124L54.3164 16.456L53.8124 17.024V18H52.6684ZM58.6007 18.096C58.318 18.096 58.054 18.0507 57.8087 17.96C57.5634 17.864 57.35 17.728 57.1687 17.552C56.9874 17.3707 56.846 17.152 56.7447 16.896C56.6434 16.64 56.5927 16.3467 56.5927 16.016C56.5927 15.696 56.646 15.408 56.7527 15.152C56.8594 14.8907 56.998 14.672 57.1687 14.496C57.3447 14.3147 57.5447 14.176 57.7687 14.08C57.9927 13.984 58.2247 13.936 58.4647 13.936C58.7474 13.936 58.9927 13.984 59.2007 14.08C59.414 14.176 59.59 14.3093 59.7287 14.48C59.8727 14.6507 59.9794 14.8533 60.0487 15.088C60.118 15.3173 60.1527 15.568 60.1527 15.84C60.1527 15.9467 60.1474 16.048 60.1367 16.144C60.126 16.24 60.1154 16.312 60.1047 16.36H57.7287C57.782 16.648 57.8994 16.8613 58.0807 17C58.2674 17.1333 58.494 17.2 58.7607 17.2C59.0434 17.2 59.3287 17.112 59.6167 16.936L60.0087 17.648C59.806 17.7867 59.5794 17.896 59.3287 17.976C59.0834 18.056 58.8407 18.096 58.6007 18.096ZM57.7207 15.584H59.1527C59.1527 15.36 59.102 15.1787 59.0007 15.04C58.8994 14.9013 58.7287 14.832 58.4887 14.832C58.302 14.832 58.1367 14.8933 57.9927 15.016C57.854 15.1387 57.7634 15.328 57.7207 15.584ZM60.9653 18V14.032H61.9253L62.0053 14.536H62.0373C62.208 14.376 62.3946 14.2373 62.5973 14.12C62.8 13.9973 63.0373 13.936 63.3093 13.936C63.7413 13.936 64.0533 14.0773 64.2453 14.36C64.4426 14.6427 64.5413 15.0347 64.5413 15.536V18H63.3653V15.688C63.3653 15.4 63.3253 15.2027 63.2453 15.096C63.1706 14.9893 63.048 14.936 62.8773 14.936C62.728 14.936 62.6 14.9707 62.4933 15.04C62.3866 15.104 62.2693 15.1973 62.1413 15.32V18H60.9653ZM7.84 23.36L7.712 23.84H8.824L8.704 23.36C8.62933 23.0987 8.55733 22.8213 8.488 22.528C8.41867 22.2347 8.34933 21.952 8.28 21.68H8.248C8.184 21.9573 8.11733 22.2427 8.048 22.536C7.984 22.824 7.91467 23.0987 7.84 23.36ZM5.952 26L7.584 20.784H9L10.632 26H9.384L9.064 24.76H7.472L7.152 26H5.952ZM12.5219 26.096C12.2766 26.096 12.0526 26.048 11.8499 25.952C11.6526 25.856 11.4819 25.72 11.3379 25.544C11.1993 25.3627 11.0899 25.144 11.0099 24.888C10.9353 24.632 10.8979 24.3413 10.8979 24.016C10.8979 23.6907 10.9433 23.4 11.0339 23.144C11.1299 22.888 11.2526 22.672 11.4019 22.496C11.5566 22.3147 11.7326 22.176 11.9299 22.08C12.1326 21.984 12.3379 21.936 12.5459 21.936C12.7699 21.936 12.9539 21.9733 13.0979 22.048C13.2419 22.1227 13.3833 22.224 13.5219 22.352L13.4739 21.744V20.392H14.6499V26H13.6899L13.6099 25.608H13.5779C13.4393 25.7467 13.2766 25.864 13.0899 25.96C12.9033 26.0507 12.7139 26.096 12.5219 26.096ZM12.8259 25.136C12.9539 25.136 13.0686 25.1093 13.1699 25.056C13.2766 25.0027 13.3779 24.9093 13.4739 24.776V23.152C13.3673 23.056 13.2579 22.9893 13.1459 22.952C13.0339 22.9147 12.9246 22.896 12.8179 22.896C12.6313 22.896 12.4659 22.9867 12.3219 23.168C12.1779 23.344 12.1059 23.6213 12.1059 24C12.1059 24.3947 12.1673 24.6827 12.2899 24.864C12.4179 25.0453 12.5966 25.136 12.8259 25.136ZM16.6039 26L15.2679 22.032H16.4519L16.9639 23.904C17.0172 24.1013 17.0679 24.304 17.1159 24.512C17.1692 24.7147 17.2225 24.92 17.2759 25.128H17.3079C17.3559 24.92 17.4039 24.7147 17.4519 24.512C17.5052 24.304 17.5585 24.1013 17.6119 23.904L18.1319 22.032H19.2599L17.9639 26H16.6039ZM21.5929 26.096C21.3102 26.096 21.0462 26.0507 20.8009 25.96C20.5555 25.864 20.3422 25.728 20.1609 25.552C19.9795 25.3707 19.8382 25.152 19.7369 24.896C19.6355 24.64 19.5849 24.3467 19.5849 24.016C19.5849 23.696 19.6382 23.408 19.7449 23.152C19.8515 22.8907 19.9902 22.672 20.1609 22.496C20.3369 22.3147 20.5369 22.176 20.7609 22.08C20.9849 21.984 21.2169 21.936 21.4569 21.936C21.7395 21.936 21.9849 21.984 22.1929 22.08C22.4062 22.176 22.5822 22.3093 22.7209 22.48C22.8649 22.6507 22.9715 22.8533 23.0409 23.088C23.1102 23.3173 23.1449 23.568 23.1449 23.84C23.1449 23.9467 23.1395 24.048 23.1289 24.144C23.1182 24.24 23.1075 24.312 23.0969 24.36H20.7209C20.7742 24.648 20.8915 24.8613 21.0729 25C21.2595 25.1333 21.4862 25.2 21.7529 25.2C22.0355 25.2 22.3209 25.112 22.6089 24.936L23.0009 25.648C22.7982 25.7867 22.5715 25.896 22.3209 25.976C22.0755 26.056 21.8329 26.096 21.5929 26.096ZM20.7129 23.584H22.1449C22.1449 23.36 22.0942 23.1787 21.9929 23.04C21.8915 22.9013 21.7209 22.832 21.4809 22.832C21.2942 22.832 21.1289 22.8933 20.9849 23.016C20.8462 23.1387 20.7555 23.328 20.7129 23.584ZM23.9575 26V22.032H24.9175L24.9975 22.536H25.0295C25.2002 22.376 25.3868 22.2373 25.5895 22.12C25.7922 21.9973 26.0295 21.936 26.3015 21.936C26.7335 21.936 27.0455 22.0773 27.2375 22.36C27.4348 22.6427 27.5335 23.0347 27.5335 23.536V26H26.3575V23.688C26.3575 23.4 26.3175 23.2027 26.2375 23.096C26.1628 22.9893 26.0402 22.936 25.8695 22.936C25.7202 22.936 25.5922 22.9707 25.4855 23.04C25.3788 23.104 25.2615 23.1973 25.1335 23.32V26H23.9575ZM30.0636 26.096C29.8183 26.096 29.6076 26.0587 29.4316 25.984C29.261 25.9093 29.1196 25.8053 29.0076 25.672C28.901 25.5387 28.821 25.3787 28.7676 25.192C28.7196 25 28.6956 24.7893 28.6956 24.56V22.952H28.1516V22.08L28.7596 22.032L28.8956 20.976H29.8716V22.032H30.8236V22.952H29.8716V24.544C29.8716 24.768 29.917 24.9307 30.0076 25.032C30.1036 25.128 30.229 25.176 30.3836 25.176C30.4476 25.176 30.5116 25.168 30.5756 25.152C30.645 25.136 30.7063 25.1173 30.7596 25.096L30.9436 25.952C30.837 25.984 30.7116 26.016 30.5676 26.048C30.4236 26.08 30.2556 26.096 30.0636 26.096ZM32.7901 26.096C32.3581 26.096 32.0435 25.9547 31.8461 25.672C31.6541 25.3893 31.5581 24.9973 31.5581 24.496V22.032H32.7341V24.344C32.7341 24.632 32.7741 24.8293 32.8541 24.936C32.9341 25.0427 33.0595 25.096 33.2301 25.096C33.3795 25.096 33.5048 25.0613 33.6061 24.992C33.7075 24.9227 33.8168 24.8107 33.9341 24.656V22.032H35.1101V26H34.1501L34.0621 25.448H34.0381C33.8675 25.6507 33.6835 25.8107 33.4861 25.928C33.2941 26.04 33.0621 26.096 32.7901 26.096ZM36.145 26V22.032H37.105L37.185 22.728H37.217C37.361 22.456 37.5343 22.256 37.737 22.128C37.9397 22 38.1423 21.936 38.345 21.936C38.457 21.936 38.5477 21.944 38.617 21.96C38.6917 21.9707 38.7583 21.9893 38.817 22.016L38.625 23.032C38.5503 23.0107 38.481 22.9947 38.417 22.984C38.353 22.9733 38.2783 22.968 38.193 22.968C38.0437 22.968 37.8863 23.0213 37.721 23.128C37.561 23.2347 37.4277 23.424 37.321 23.696V26H36.145ZM41.0304 26.096C40.7477 26.096 40.4837 26.0507 40.2384 25.96C39.993 25.864 39.7797 25.728 39.5984 25.552C39.417 25.3707 39.2757 25.152 39.1744 24.896C39.073 24.64 39.0224 24.3467 39.0224 24.016C39.0224 23.696 39.0757 23.408 39.1824 23.152C39.289 22.8907 39.4277 22.672 39.5984 22.496C39.7744 22.3147 39.9744 22.176 40.1984 22.08C40.4224 21.984 40.6544 21.936 40.8944 21.936C41.177 21.936 41.4224 21.984 41.6304 22.08C41.8437 22.176 42.0197 22.3093 42.1584 22.48C42.3024 22.6507 42.409 22.8533 42.4784 23.088C42.5477 23.3173 42.5824 23.568 42.5824 23.84C42.5824 23.9467 42.577 24.048 42.5664 24.144C42.5557 24.24 42.545 24.312 42.5344 24.36H40.1584C40.2117 24.648 40.329 24.8613 40.5104 25C40.697 25.1333 40.9237 25.2 41.1904 25.2C41.473 25.2 41.7584 25.112 42.0464 24.936L42.4384 25.648C42.2357 25.7867 42.009 25.896 41.7584 25.976C41.513 26.056 41.2704 26.096 41.0304 26.096ZM40.1504 23.584H41.5824C41.5824 23.36 41.5317 23.1787 41.4304 23.04C41.329 22.9013 41.1584 22.832 40.9184 22.832C40.7317 22.832 40.5664 22.8933 40.4224 23.016C40.2837 23.1387 40.193 23.328 40.1504 23.584ZM44.563 26.096C44.3017 26.096 44.0323 26.0453 43.755 25.944C43.483 25.8427 43.2457 25.7093 43.043 25.544L43.571 24.808C43.7523 24.9467 43.9257 25.0507 44.091 25.12C44.2563 25.1893 44.4243 25.224 44.595 25.224C44.771 25.224 44.899 25.1947 44.979 25.136C45.059 25.0773 45.099 24.9947 45.099 24.888C45.099 24.824 45.075 24.768 45.027 24.72C44.9843 24.6667 44.923 24.6187 44.843 24.576C44.7683 24.5333 44.683 24.496 44.587 24.464C44.491 24.4267 44.3923 24.3867 44.291 24.344C44.1683 24.296 44.0457 24.24 43.923 24.176C43.8003 24.112 43.6883 24.0347 43.587 23.944C43.4857 23.848 43.403 23.7387 43.339 23.616C43.275 23.488 43.243 23.3413 43.243 23.176C43.243 22.9947 43.2777 22.8267 43.347 22.672C43.4217 22.5173 43.5257 22.3867 43.659 22.28C43.7923 22.1733 43.9523 22.0907 44.139 22.032C44.3257 21.968 44.5337 21.936 44.763 21.936C45.067 21.936 45.3337 21.9893 45.563 22.096C45.7923 22.1973 45.9923 22.312 46.163 22.44L45.635 23.144C45.491 23.0373 45.3497 22.9547 45.211 22.896C45.0723 22.8373 44.9337 22.808 44.795 22.808C44.4963 22.808 44.347 22.912 44.347 23.12C44.347 23.184 44.3683 23.24 44.411 23.288C44.4537 23.3307 44.5097 23.3707 44.579 23.408C44.6537 23.4453 44.7363 23.4827 44.827 23.52C44.923 23.552 45.0217 23.5867 45.123 23.624C45.251 23.672 45.3763 23.728 45.499 23.792C45.627 23.8507 45.7417 23.9253 45.843 24.016C45.9497 24.1067 46.035 24.2187 46.099 24.352C46.163 24.48 46.195 24.6347 46.195 24.816C46.195 24.9973 46.1603 25.1653 46.091 25.32C46.0217 25.4747 45.9177 25.6107 45.779 25.728C45.6403 25.84 45.4697 25.9307 45.267 26C45.0643 26.064 44.8297 26.096 44.563 26.096ZM47.3979 24.152L47.2299 21.704L47.1899 20.64H48.3739L48.3339 21.704L48.1659 24.152H47.3979ZM47.7819 26.096C47.5792 26.096 47.4085 26.0267 47.2699 25.888C47.1365 25.744 47.0699 25.568 47.0699 25.36C47.0699 25.1467 47.1365 24.9707 47.2699 24.832C47.4085 24.688 47.5792 24.616 47.7819 24.616C47.9845 24.616 48.1525 24.688 48.2859 24.832C48.4245 24.9707 48.4939 25.1467 48.4939 25.36C48.4939 25.568 48.4245 25.744 48.2859 25.888C48.1525 26.0267 47.9845 26.096 47.7819 26.096Z" fill="#8C7BF8"/>
<rect x="6" y="67" width="12" height="12" rx="6" fill="#8C7BF8"/>
<rect x="20" y="67" width="38" height="2" rx="1" fill="#8C7BF8"/>
<rect x="20" y="70" width="38" height="2" rx="1" fill="#8C7BF8"/>
<rect x="20" y="73" width="38" height="2" rx="1" fill="#8C7BF8"/>
<rect x="20" y="76" width="21" height="2" rx="1" fill="#8C7BF8"/>
<rect x="6" y="50" width="12" height="12" rx="6" fill="#8C7BF8"/>
<rect x="20" y="50" width="38" height="2" rx="1" fill="#8C7BF8"/>
<rect x="20" y="53" width="38" height="2" rx="1" fill="#8C7BF8"/>
<rect x="20" y="56" width="38" height="2" rx="1" fill="#8C7BF8"/>
<rect x="20" y="59" width="21" height="2" rx="1" fill="#8C7BF8"/>
<rect x="6" y="30" width="67" height="16" rx="3" fill="#FF6C6C"/>
<rect x="1" y="1" width="76" height="8" fill="#8C7BF8"/>
<rect x="3" y="3" width="57" height="3" rx="1.5" fill="#F3EFEB"/>
<rect x="75" y="2" width="2" height="2" rx="1" fill="#F3EFEB"/>
<rect x="72" y="2" width="2" height="2" rx="1" fill="#F3EFEB"/>
<rect x="69" y="2" width="2" height="2" rx="1" fill="#F3EFEB"/>
<path d="M11.1574 37V34.5712H10.334V34.0008H12.6616V34.5712H11.8382V37H11.1574ZM13.0741 37V33.7754H13.7503V34.5666L13.7181 34.976C13.804 34.8993 13.9036 34.8288 14.0171 34.7644C14.1306 34.6969 14.2655 34.6632 14.4219 34.6632C14.6703 34.6632 14.8497 34.7445 14.9601 34.907C15.0736 35.0695 15.1303 35.2949 15.1303 35.5832V37H14.4541V35.6706C14.4541 35.505 14.4311 35.3915 14.3851 35.3302C14.3422 35.2689 14.2716 35.2382 14.1735 35.2382C14.0876 35.2382 14.014 35.2581 13.9527 35.298C13.8914 35.3348 13.8239 35.3885 13.7503 35.459V37H13.0741ZM16.277 37.0552C16.1728 37.0552 16.0777 37.0368 15.9918 37C15.909 36.9663 15.8385 36.9187 15.7802 36.8574C15.722 36.793 15.676 36.7194 15.6422 36.6366C15.6116 36.5538 15.5962 36.4633 15.5962 36.3652C15.5962 36.126 15.6974 35.9389 15.8998 35.804C16.1022 35.6691 16.4288 35.5786 16.8796 35.5326C16.8735 35.4314 16.8428 35.3517 16.7876 35.2934C16.7355 35.2321 16.6466 35.2014 16.5208 35.2014C16.4227 35.2014 16.3246 35.2198 16.2264 35.2566C16.1314 35.2934 16.0286 35.344 15.9182 35.4084L15.6744 34.9622C15.8216 34.8733 15.975 34.8012 16.1344 34.746C16.297 34.6908 16.4687 34.6632 16.6496 34.6632C16.944 34.6632 17.1679 34.7475 17.3212 34.9162C17.4776 35.0818 17.5558 35.3409 17.5558 35.6936V37H17.0038L16.9578 36.7654H16.9394C16.8413 36.8513 16.7386 36.9218 16.6312 36.977C16.5239 37.0291 16.4058 37.0552 16.277 37.0552ZM16.507 36.5308C16.5837 36.5308 16.6496 36.5139 16.7048 36.4802C16.76 36.4465 16.8183 36.3989 16.8796 36.3376V35.9374C16.6404 35.9711 16.4748 36.0202 16.3828 36.0846C16.2908 36.149 16.2448 36.2257 16.2448 36.3146C16.2448 36.3882 16.2678 36.4434 16.3138 36.4802C16.3629 36.5139 16.4273 36.5308 16.507 36.5308ZM18.1278 37V34.7184H18.6798L18.7258 35.0082H18.7442C18.8423 34.9162 18.9497 34.8365 19.0662 34.769C19.1827 34.6985 19.3192 34.6632 19.4756 34.6632C19.724 34.6632 19.9034 34.7445 20.0138 34.907C20.1273 35.0695 20.184 35.2949 20.184 35.5832V37H19.5078V35.6706C19.5078 35.505 19.4848 35.3915 19.4388 35.3302C19.3959 35.2689 19.3253 35.2382 19.2272 35.2382C19.1413 35.2382 19.0677 35.2581 19.0064 35.298C18.9451 35.3348 18.8776 35.3885 18.804 35.459V37H18.1278ZM20.7602 37V33.7754H21.418V35.6246H21.4364L22.1586 34.7184H22.8946L22.0942 35.6568L22.9544 37H22.223L21.7078 36.1122L21.418 36.4388V37H20.7602ZM24.4542 37.8924C24.3837 37.8924 24.3239 37.8878 24.2748 37.8786C24.2258 37.8725 24.1782 37.8617 24.1322 37.8464L24.2518 37.3312C24.2733 37.3373 24.2978 37.3435 24.3254 37.3496C24.353 37.3557 24.3791 37.3588 24.4036 37.3588C24.5171 37.3588 24.6045 37.3312 24.6658 37.276C24.7272 37.2208 24.7732 37.1487 24.8038 37.0598L24.836 36.9402L23.9574 34.7184H24.6382L24.9648 35.6982C24.9986 35.8025 25.0292 35.9083 25.0568 36.0156C25.0844 36.1229 25.1136 36.2333 25.1442 36.3468H25.1626C25.1872 36.2395 25.2117 36.1321 25.2362 36.0248C25.2638 35.9144 25.2914 35.8055 25.319 35.6982L25.595 34.7184H26.2436L25.4524 37.023C25.3972 37.1671 25.339 37.2929 25.2776 37.4002C25.2194 37.5106 25.1504 37.6011 25.0706 37.6716C24.994 37.7452 24.905 37.8004 24.8038 37.8372C24.7057 37.874 24.5892 37.8924 24.4542 37.8924ZM27.5439 37.0552C27.3998 37.0552 27.2603 37.0291 27.1253 36.977C26.9904 36.9218 26.8708 36.8436 26.7665 36.7424C26.6653 36.6412 26.5841 36.517 26.5227 36.3698C26.4614 36.2195 26.4307 36.0493 26.4307 35.8592C26.4307 35.6691 26.4614 35.5004 26.5227 35.3532C26.5841 35.2029 26.6653 35.0772 26.7665 34.976C26.8708 34.8748 26.9904 34.7981 27.1253 34.746C27.2603 34.6908 27.3998 34.6632 27.5439 34.6632C27.6881 34.6632 27.8261 34.6908 27.9579 34.746C28.0929 34.7981 28.2109 34.8748 28.3121 34.976C28.4164 35.0772 28.4992 35.2029 28.5605 35.3532C28.6219 35.5004 28.6525 35.6691 28.6525 35.8592C28.6525 36.0493 28.6219 36.2195 28.5605 36.3698C28.4992 36.517 28.4164 36.6412 28.3121 36.7424C28.2109 36.8436 28.0929 36.9218 27.9579 36.977C27.8261 37.0291 27.6881 37.0552 27.5439 37.0552ZM27.5439 36.5078C27.6819 36.5078 27.7862 36.4495 27.8567 36.333C27.9273 36.2165 27.9625 36.0585 27.9625 35.8592C27.9625 35.6599 27.9273 35.5019 27.8567 35.3854C27.7862 35.2689 27.6819 35.2106 27.5439 35.2106C27.4029 35.2106 27.2971 35.2689 27.2265 35.3854C27.1591 35.5019 27.1253 35.6599 27.1253 35.8592C27.1253 36.0585 27.1591 36.2165 27.2265 36.333C27.2971 36.4495 27.4029 36.5078 27.5439 36.5078ZM29.8011 37.0552C29.5527 37.0552 29.3718 36.9739 29.2583 36.8114C29.1479 36.6489 29.0927 36.4235 29.0927 36.1352V34.7184H29.7689V36.0478C29.7689 36.2134 29.7919 36.3269 29.8379 36.3882C29.8839 36.4495 29.956 36.4802 30.0541 36.4802C30.14 36.4802 30.212 36.4603 30.2703 36.4204C30.3286 36.3805 30.3914 36.3161 30.4589 36.2272V34.7184H31.1351V37H30.5831L30.5325 36.6826H30.5187C30.4206 36.7991 30.3148 36.8911 30.2013 36.9586C30.0909 37.023 29.9575 37.0552 29.8011 37.0552ZM32.7661 37V35.2474H32.4625V34.746L32.7661 34.723V34.5988C32.7661 34.4792 32.7799 34.3657 32.8075 34.2584C32.8381 34.1511 32.8872 34.0575 32.9547 33.9778C33.0221 33.8981 33.1095 33.8352 33.2169 33.7892C33.3242 33.7432 33.4545 33.7202 33.6079 33.7202C33.7029 33.7202 33.7888 33.7294 33.8655 33.7478C33.9452 33.7662 34.0111 33.7846 34.0633 33.803L33.9391 34.2998C33.8532 34.2691 33.775 34.2538 33.7045 34.2538C33.6217 34.2538 33.5573 34.2799 33.5113 34.332C33.4653 34.3811 33.4423 34.4639 33.4423 34.5804V34.7184H33.8517V35.2474H33.4423V37H32.7661ZM35.1537 37.0552C35.0096 37.0552 34.87 37.0291 34.7351 36.977C34.6002 36.9218 34.4806 36.8436 34.3763 36.7424C34.2751 36.6412 34.1938 36.517 34.1325 36.3698C34.0712 36.2195 34.0405 36.0493 34.0405 35.8592C34.0405 35.6691 34.0712 35.5004 34.1325 35.3532C34.1938 35.2029 34.2751 35.0772 34.3763 34.976C34.4806 34.8748 34.6002 34.7981 34.7351 34.746C34.87 34.6908 35.0096 34.6632 35.1537 34.6632C35.2978 34.6632 35.4358 34.6908 35.5677 34.746C35.7026 34.7981 35.8207 34.8748 35.9219 34.976C36.0262 35.0772 36.109 35.2029 36.1703 35.3532C36.2316 35.5004 36.2623 35.6691 36.2623 35.8592C36.2623 36.0493 36.2316 36.2195 36.1703 36.3698C36.109 36.517 36.0262 36.6412 35.9219 36.7424C35.8207 36.8436 35.7026 36.9218 35.5677 36.977C35.4358 37.0291 35.2978 37.0552 35.1537 37.0552ZM35.1537 36.5078C35.2917 36.5078 35.396 36.4495 35.4665 36.333C35.537 36.2165 35.5723 36.0585 35.5723 35.8592C35.5723 35.6599 35.537 35.5019 35.4665 35.3854C35.396 35.2689 35.2917 35.2106 35.1537 35.2106C35.0126 35.2106 34.9068 35.2689 34.8363 35.3854C34.7688 35.5019 34.7351 35.6599 34.7351 35.8592C34.7351 36.0585 34.7688 36.2165 34.8363 36.333C34.9068 36.4495 35.0126 36.5078 35.1537 36.5078ZM36.7255 37V34.7184H37.2775L37.3235 35.1186H37.3419C37.4247 34.9622 37.5243 34.8472 37.6409 34.7736C37.7574 34.7 37.8739 34.6632 37.9905 34.6632C38.0549 34.6632 38.107 34.6678 38.1469 34.677C38.1898 34.6831 38.2281 34.6939 38.2619 34.7092L38.1515 35.2934C38.1085 35.2811 38.0687 35.2719 38.0319 35.2658C37.9951 35.2597 37.9521 35.2566 37.9031 35.2566C37.8172 35.2566 37.7267 35.2873 37.6317 35.3486C37.5397 35.4099 37.463 35.5188 37.4017 35.6752V37H36.7255ZM40.1508 37.0552C40.0005 37.0552 39.8456 37.0261 39.6862 36.9678C39.5298 36.9095 39.3933 36.8329 39.2768 36.7378L39.5804 36.3146C39.6846 36.3943 39.7843 36.4541 39.8794 36.494C39.9744 36.5339 40.071 36.5538 40.1692 36.5538C40.2704 36.5538 40.344 36.5369 40.39 36.5032C40.436 36.4695 40.459 36.4219 40.459 36.3606C40.459 36.3238 40.4452 36.2916 40.4176 36.264C40.393 36.2333 40.3578 36.2057 40.3118 36.1812C40.2688 36.1567 40.2198 36.1352 40.1646 36.1168C40.1094 36.0953 40.0526 36.0723 39.9944 36.0478C39.9238 36.0202 39.8533 35.988 39.7828 35.9512C39.7122 35.9144 39.6478 35.8699 39.5896 35.8178C39.5313 35.7626 39.4838 35.6997 39.447 35.6292C39.4102 35.5556 39.3918 35.4713 39.3918 35.3762C39.3918 35.2719 39.4117 35.1753 39.4516 35.0864C39.4945 34.9975 39.5543 34.9223 39.631 34.861C39.7076 34.7997 39.7996 34.7521 39.907 34.7184C40.0143 34.6816 40.1339 34.6632 40.2658 34.6632C40.4406 34.6632 40.5939 34.6939 40.7258 34.7552C40.8576 34.8135 40.9726 34.8794 41.0708 34.953L40.7672 35.3578C40.6844 35.2965 40.6031 35.2489 40.5234 35.2152C40.4436 35.1815 40.3639 35.1646 40.2842 35.1646C40.1124 35.1646 40.0266 35.2244 40.0266 35.344C40.0266 35.3808 40.0388 35.413 40.0634 35.4406C40.0879 35.4651 40.1201 35.4881 40.16 35.5096C40.2029 35.5311 40.2504 35.5525 40.3026 35.574C40.3578 35.5924 40.4145 35.6123 40.4728 35.6338C40.5464 35.6614 40.6184 35.6936 40.689 35.7304C40.7626 35.7641 40.8285 35.8071 40.8868 35.8592C40.9481 35.9113 40.9972 35.9757 41.034 36.0524C41.0708 36.126 41.0892 36.2149 41.0892 36.3192C41.0892 36.4235 41.0692 36.5201 41.0294 36.609C40.9895 36.6979 40.9297 36.7761 40.85 36.8436C40.7702 36.908 40.6721 36.9601 40.5556 37C40.439 37.0368 40.3041 37.0552 40.1508 37.0552ZM42.204 37.0552C41.9556 37.0552 41.7747 36.9739 41.6612 36.8114C41.5508 36.6489 41.4956 36.4235 41.4956 36.1352V34.7184H42.1718V36.0478C42.1718 36.2134 42.1948 36.3269 42.2408 36.3882C42.2868 36.4495 42.3589 36.4802 42.457 36.4802C42.5429 36.4802 42.615 36.4603 42.6732 36.4204C42.7315 36.3805 42.7944 36.3161 42.8618 36.2272V34.7184H43.538V37H42.986L42.9354 36.6826H42.9216C42.8235 36.7991 42.7177 36.8911 42.6042 36.9586C42.4938 37.023 42.3604 37.0552 42.204 37.0552ZM44.1331 37.8464V34.7184H44.6851L44.7311 34.9438H44.7495C44.8384 34.8641 44.9381 34.7981 45.0485 34.746C45.162 34.6908 45.2785 34.6632 45.3981 34.6632C45.5361 34.6632 45.6603 34.6908 45.7707 34.746C45.8811 34.8012 45.9746 34.8794 46.0513 34.9806C46.128 35.0818 46.1862 35.2045 46.2261 35.3486C46.269 35.4897 46.2905 35.6476 46.2905 35.8224C46.2905 36.0187 46.2629 36.1935 46.2077 36.3468C46.1556 36.4971 46.0835 36.6259 45.9915 36.7332C45.9026 36.8375 45.7998 36.9172 45.6833 36.9724C45.5698 37.0276 45.4518 37.0552 45.3291 37.0552C45.231 37.0552 45.1359 37.0353 45.0439 36.9954C44.9519 36.9525 44.866 36.8927 44.7863 36.816L44.8093 37.1794V37.8464H44.1331ZM45.1727 36.5032C45.2892 36.5032 45.3889 36.4511 45.4717 36.3468C45.5545 36.2395 45.5959 36.0677 45.5959 35.8316C45.5959 35.4207 45.464 35.2152 45.2003 35.2152C45.0684 35.2152 44.9381 35.2842 44.8093 35.4222V36.356C44.8706 36.4112 44.932 36.4495 44.9933 36.471C45.0546 36.4925 45.1144 36.5032 45.1727 36.5032ZM46.77 37.8464V34.7184H47.322L47.368 34.9438H47.3864C47.4753 34.8641 47.575 34.7981 47.6854 34.746C47.7989 34.6908 47.9154 34.6632 48.035 34.6632C48.173 34.6632 48.2972 34.6908 48.4076 34.746C48.518 34.8012 48.6115 34.8794 48.6882 34.9806C48.7649 35.0818 48.8231 35.2045 48.863 35.3486C48.9059 35.4897 48.9274 35.6476 48.9274 35.8224C48.9274 36.0187 48.8998 36.1935 48.8446 36.3468C48.7925 36.4971 48.7204 36.6259 48.6284 36.7332C48.5395 36.8375 48.4367 36.9172 48.3202 36.9724C48.2067 37.0276 48.0887 37.0552 47.966 37.0552C47.8679 37.0552 47.7728 37.0353 47.6808 36.9954C47.5888 36.9525 47.5029 36.8927 47.4232 36.816L47.4462 37.1794V37.8464H46.77ZM47.8096 36.5032C47.9261 36.5032 48.0258 36.4511 48.1086 36.3468C48.1914 36.2395 48.2328 36.0677 48.2328 35.8316C48.2328 35.4207 48.1009 35.2152 47.8372 35.2152C47.7053 35.2152 47.575 35.2842 47.4462 35.4222V36.356C47.5075 36.4112 47.5689 36.4495 47.6302 36.471C47.6915 36.4925 47.7513 36.5032 47.8096 36.5032ZM50.3867 37.0552C50.2426 37.0552 50.103 37.0291 49.9681 36.977C49.8332 36.9218 49.7136 36.8436 49.6093 36.7424C49.5081 36.6412 49.4268 36.517 49.3655 36.3698C49.3042 36.2195 49.2735 36.0493 49.2735 35.8592C49.2735 35.6691 49.3042 35.5004 49.3655 35.3532C49.4268 35.2029 49.5081 35.0772 49.6093 34.976C49.7136 34.8748 49.8332 34.7981 49.9681 34.746C50.103 34.6908 50.2426 34.6632 50.3867 34.6632C50.5308 34.6632 50.6688 34.6908 50.8007 34.746C50.9356 34.7981 51.0537 34.8748 51.1549 34.976C51.2592 35.0772 51.342 35.2029 51.4033 35.3532C51.4646 35.5004 51.4953 35.6691 51.4953 35.8592C51.4953 36.0493 51.4646 36.2195 51.4033 36.3698C51.342 36.517 51.2592 36.6412 51.1549 36.7424C51.0537 36.8436 50.9356 36.9218 50.8007 36.977C50.6688 37.0291 50.5308 37.0552 50.3867 37.0552ZM50.3867 36.5078C50.5247 36.5078 50.629 36.4495 50.6995 36.333C50.77 36.2165 50.8053 36.0585 50.8053 35.8592C50.8053 35.6599 50.77 35.5019 50.6995 35.3854C50.629 35.2689 50.5247 35.2106 50.3867 35.2106C50.2456 35.2106 50.1398 35.2689 50.0693 35.3854C50.0018 35.5019 49.9681 35.6599 49.9681 35.8592C49.9681 36.0585 50.0018 36.2165 50.0693 36.333C50.1398 36.4495 50.2456 36.5078 50.3867 36.5078ZM51.9585 37V34.7184H52.5105L52.5565 35.1186H52.5749C52.6577 34.9622 52.7573 34.8472 52.8739 34.7736C52.9904 34.7 53.1069 34.6632 53.2235 34.6632C53.2879 34.6632 53.34 34.6678 53.3799 34.677C53.4228 34.6831 53.4611 34.6939 53.4949 34.7092L53.3845 35.2934C53.3415 35.2811 53.3017 35.2719 53.2649 35.2658C53.2281 35.2597 53.1851 35.2566 53.1361 35.2566C53.0502 35.2566 52.9597 35.2873 52.8647 35.3486C52.7727 35.4099 52.696 35.5188 52.6347 35.6752V37H51.9585ZM54.6699 37.0552C54.5288 37.0552 54.4077 37.0337 54.3065 36.9908C54.2084 36.9479 54.1271 36.8881 54.0627 36.8114C54.0014 36.7347 53.9554 36.6427 53.9247 36.5354C53.8971 36.425 53.8833 36.3039 53.8833 36.172V35.2474H53.5705V34.746L53.9201 34.7184L53.9983 34.1112H54.5595V34.7184H55.1069V35.2474H54.5595V36.1628C54.5595 36.2916 54.5856 36.3851 54.6377 36.4434C54.6929 36.4986 54.765 36.5262 54.8539 36.5262C54.8907 36.5262 54.9275 36.5216 54.9643 36.5124C55.0042 36.5032 55.0394 36.4925 55.0701 36.4802L55.1759 36.9724C55.1146 36.9908 55.0425 37.0092 54.9597 37.0276C54.8769 37.046 54.7803 37.0552 54.6699 37.0552ZM55.5522 37V34.7184H56.2284V37H55.5522ZM55.888 34.3826C55.7746 34.3826 55.681 34.3504 55.6074 34.286C55.5338 34.2185 55.497 34.1327 55.497 34.0284C55.497 33.9241 55.5338 33.8398 55.6074 33.7754C55.681 33.711 55.7746 33.6788 55.888 33.6788C56.0046 33.6788 56.0981 33.711 56.1686 33.7754C56.2422 33.8398 56.279 33.9241 56.279 34.0284C56.279 34.1327 56.2422 34.2185 56.1686 34.286C56.0981 34.3504 56.0046 34.3826 55.888 34.3826ZM56.8235 37V34.7184H57.3755L57.4215 35.0082H57.4399C57.538 34.9162 57.6454 34.8365 57.7619 34.769C57.8784 34.6985 58.0149 34.6632 58.1713 34.6632C58.4197 34.6632 58.5991 34.7445 58.7095 34.907C58.823 35.0695 58.8797 35.2949 58.8797 35.5832V37H58.2035V35.6706C58.2035 35.505 58.1805 35.3915 58.1345 35.3302C58.0916 35.2689 58.021 35.2382 57.9229 35.2382C57.837 35.2382 57.7634 35.2581 57.7021 35.298C57.6408 35.3348 57.5733 35.3885 57.4997 35.459V37H56.8235ZM60.2701 37.9706C60.1352 37.9706 60.0095 37.9583 59.8929 37.9338C59.7795 37.9123 59.6783 37.8786 59.5893 37.8326C59.5035 37.7866 59.436 37.7268 59.3869 37.6532C59.3379 37.5796 59.3133 37.4922 59.3133 37.391C59.3133 37.207 59.4222 37.0537 59.6399 36.931V36.9126C59.5786 36.8727 59.528 36.8221 59.4881 36.7608C59.4483 36.6995 59.4283 36.6213 59.4283 36.5262C59.4283 36.4434 59.4529 36.3652 59.5019 36.2916C59.551 36.2149 59.6123 36.1505 59.6859 36.0984V36.08C59.6062 36.0248 59.5341 35.9466 59.4697 35.8454C59.4084 35.7411 59.3777 35.6215 59.3777 35.4866C59.3777 35.3486 59.4038 35.229 59.4559 35.1278C59.5081 35.0235 59.5771 34.9377 59.6629 34.8702C59.7519 34.7997 59.8531 34.7475 59.9665 34.7138C60.08 34.6801 60.1981 34.6632 60.3207 34.6632C60.4557 34.6632 60.5737 34.6816 60.6749 34.7184H61.5075V35.2106H61.1441C61.1656 35.2443 61.1825 35.2873 61.1947 35.3394C61.2101 35.3915 61.2177 35.4483 61.2177 35.5096C61.2177 35.6415 61.1947 35.7565 61.1487 35.8546C61.1027 35.9497 61.0383 36.0294 60.9555 36.0938C60.8758 36.1551 60.7807 36.2011 60.6703 36.2318C60.563 36.2625 60.4465 36.2778 60.3207 36.2778C60.2318 36.2778 60.1398 36.2625 60.0447 36.2318C60.0141 36.2563 59.9926 36.2809 59.9803 36.3054C59.9681 36.3299 59.9619 36.3621 59.9619 36.402C59.9619 36.4603 59.9865 36.5032 60.0355 36.5308C60.0877 36.5584 60.1781 36.5722 60.3069 36.5722H60.6749C60.9571 36.5722 61.1717 36.6182 61.3189 36.7102C61.4692 36.7991 61.5443 36.9463 61.5443 37.1518C61.5443 37.2714 61.5137 37.3803 61.4523 37.4784C61.3941 37.5796 61.3097 37.6655 61.1993 37.736C61.0889 37.8096 60.9555 37.8663 60.7991 37.9062C60.6427 37.9491 60.4664 37.9706 60.2701 37.9706ZM60.3207 35.8684C60.4097 35.8684 60.4833 35.8377 60.5415 35.7764C60.6029 35.712 60.6335 35.6154 60.6335 35.4866C60.6335 35.367 60.6029 35.2765 60.5415 35.2152C60.4833 35.1508 60.4097 35.1186 60.3207 35.1186C60.2318 35.1186 60.1567 35.1493 60.0953 35.2106C60.0371 35.2719 60.0079 35.3639 60.0079 35.4866C60.0079 35.6154 60.0371 35.712 60.0953 35.7764C60.1567 35.8377 60.2318 35.8684 60.3207 35.8684ZM60.3759 37.5474C60.5293 37.5474 60.655 37.5198 60.7531 37.4646C60.8513 37.4125 60.9003 37.3465 60.9003 37.2668C60.9003 37.1963 60.8697 37.1487 60.8083 37.1242C60.7501 37.0997 60.6642 37.0874 60.5507 37.0874H60.3161C60.2364 37.0874 60.172 37.0843 60.1229 37.0782C60.0739 37.0751 60.0309 37.069 59.9941 37.0598C59.9113 37.1334 59.8699 37.2085 59.8699 37.2852C59.8699 37.3711 59.9159 37.4355 60.0079 37.4784C60.0999 37.5244 60.2226 37.5474 60.3759 37.5474ZM62.8341 37V34.7184H63.3861L63.4321 35.0128H63.4505C63.5455 34.9177 63.6467 34.8365 63.7541 34.769C63.8614 34.6985 63.9902 34.6632 64.1405 34.6632C64.303 34.6632 64.4333 34.6969 64.5315 34.7644C64.6327 34.8288 64.7124 34.9223 64.7707 35.045C64.8719 34.9407 64.9777 34.8518 65.0881 34.7782C65.2015 34.7015 65.3349 34.6632 65.4883 34.6632C65.7336 34.6632 65.913 34.746 66.0265 34.9116C66.143 35.0741 66.2013 35.298 66.2013 35.5832V37H65.5251V35.6706C65.5251 35.505 65.5021 35.3915 65.4561 35.3302C65.4131 35.2689 65.3426 35.2382 65.2445 35.2382C65.131 35.2382 65.0007 35.3118 64.8535 35.459V37H64.1773V35.6706C64.1773 35.505 64.1543 35.3915 64.1083 35.3302C64.0653 35.2689 63.9948 35.2382 63.8967 35.2382C63.7801 35.2382 63.6513 35.3118 63.5103 35.459V37H62.8341ZM67.7994 37.0552C67.6369 37.0552 67.4851 37.0291 67.344 36.977C67.2029 36.9218 67.0803 36.8436 66.976 36.7424C66.8717 36.6381 66.7905 36.5124 66.7322 36.3652C66.6739 36.218 66.6448 36.0493 66.6448 35.8592C66.6448 35.6752 66.6755 35.5096 66.7368 35.3624C66.7981 35.2121 66.8779 35.0864 66.976 34.9852C67.0772 34.8809 67.1922 34.8012 67.321 34.746C67.4498 34.6908 67.5832 34.6632 67.7212 34.6632C67.8837 34.6632 68.0248 34.6908 68.1444 34.746C68.2671 34.8012 68.3683 34.8779 68.448 34.976C68.5308 35.0741 68.5921 35.1907 68.632 35.3256C68.6719 35.4575 68.6918 35.6016 68.6918 35.758C68.6918 35.8193 68.6887 35.8776 68.6826 35.9328C68.6765 35.988 68.6703 36.0294 68.6642 36.057H67.298C67.3287 36.2226 67.3961 36.3453 67.5004 36.425C67.6077 36.5017 67.7381 36.54 67.8914 36.54C68.0539 36.54 68.218 36.4894 68.3836 36.3882L68.609 36.7976C68.4925 36.8773 68.3621 36.9402 68.218 36.9862C68.0769 37.0322 67.9374 37.0552 67.7994 37.0552ZM67.2934 35.6108H68.1168C68.1168 35.482 68.0877 35.3777 68.0294 35.298C67.9711 35.2183 67.873 35.1784 67.735 35.1784C67.6277 35.1784 67.5326 35.2137 67.4498 35.2842C67.3701 35.3547 67.3179 35.4636 67.2934 35.6108ZM16.2444 42L15.4762 39.7184H16.157L16.4514 40.7948C16.4821 40.9083 16.5112 41.0248 16.5388 41.1444C16.5695 41.2609 16.6001 41.379 16.6308 41.4986H16.6492C16.6768 41.379 16.7044 41.2609 16.732 41.1444C16.7627 41.0248 16.7933 40.9083 16.824 40.7948L17.123 39.7184H17.7716L17.0264 42H16.2444ZM18.1278 42V39.7184H18.804V42H18.1278ZM18.4636 39.3826C18.3501 39.3826 18.2566 39.3504 18.183 39.286C18.1094 39.2185 18.0726 39.1327 18.0726 39.0284C18.0726 38.9241 18.1094 38.8398 18.183 38.7754C18.2566 38.711 18.3501 38.6788 18.4636 38.6788C18.5801 38.6788 18.6737 38.711 18.7442 38.7754C18.8178 38.8398 18.8546 38.9241 18.8546 39.0284C18.8546 39.1327 18.8178 39.2185 18.7442 39.286C18.6737 39.3504 18.5801 39.3826 18.4636 39.3826ZM19.9741 42.0552C19.8698 42.0552 19.7748 42.0368 19.6889 42C19.6061 41.9663 19.5356 41.9187 19.4773 41.8574C19.419 41.793 19.373 41.7194 19.3393 41.6366C19.3086 41.5538 19.2933 41.4633 19.2933 41.3652C19.2933 41.126 19.3945 40.9389 19.5969 40.804C19.7993 40.6691 20.1259 40.5786 20.5767 40.5326C20.5706 40.4314 20.5399 40.3517 20.4847 40.2934C20.4326 40.2321 20.3436 40.2014 20.2179 40.2014C20.1198 40.2014 20.0216 40.2198 19.9235 40.2566C19.8284 40.2934 19.7257 40.344 19.6153 40.4084L19.3715 39.9622C19.5187 39.8733 19.672 39.8012 19.8315 39.746C19.994 39.6908 20.1658 39.6632 20.3467 39.6632C20.6411 39.6632 20.865 39.7475 21.0183 39.9162C21.1747 40.0818 21.2529 40.3409 21.2529 40.6936V42H20.7009L20.6549 41.7654H20.6365C20.5384 41.8513 20.4356 41.9218 20.3283 41.977C20.221 42.0291 20.1029 42.0552 19.9741 42.0552ZM20.2041 41.5308C20.2808 41.5308 20.3467 41.5139 20.4019 41.4802C20.4571 41.4465 20.5154 41.3989 20.5767 41.3376V40.9374C20.3375 40.9711 20.1719 41.0202 20.0799 41.0846C19.9879 41.149 19.9419 41.2257 19.9419 41.3146C19.9419 41.3882 19.9649 41.4434 20.0109 41.4802C20.06 41.5139 20.1244 41.5308 20.2041 41.5308ZM23.0678 42L22.5112 39.0008H23.2058L23.4128 40.4038C23.4312 40.5602 23.4511 40.7181 23.4726 40.8776C23.494 41.034 23.514 41.1919 23.5324 41.3514H23.5508C23.5814 41.1919 23.6106 41.034 23.6382 40.8776C23.6688 40.7181 23.6995 40.5602 23.7302 40.4038L24.0522 39.0008H24.6272L24.9492 40.4038C24.9798 40.5571 25.009 40.7135 25.0366 40.873C25.0672 41.0294 25.0979 41.1889 25.1286 41.3514H25.147C25.1684 41.1889 25.1884 41.0294 25.2068 40.873C25.2282 40.7166 25.2497 40.5602 25.2712 40.4038L25.4782 39.0008H26.1268L25.5932 42H24.7422L24.4478 40.6384C24.4232 40.5219 24.4002 40.4053 24.3788 40.2888C24.3604 40.1692 24.3435 40.0542 24.3282 39.9438H24.3098C24.2914 40.0542 24.2714 40.1692 24.25 40.2888C24.2316 40.4053 24.2101 40.5219 24.1856 40.6384L23.905 42H23.0678ZM27.509 42.0552C27.3464 42.0552 27.1946 42.0291 27.0536 41.977C26.9125 41.9218 26.7898 41.8436 26.6856 41.7424C26.5813 41.6381 26.5 41.5124 26.4418 41.3652C26.3835 41.218 26.3544 41.0493 26.3544 40.8592C26.3544 40.6752 26.385 40.5096 26.4464 40.3624C26.5077 40.2121 26.5874 40.0864 26.6856 39.9852C26.7868 39.8809 26.9018 39.8012 27.0306 39.746C27.1594 39.6908 27.2928 39.6632 27.4308 39.6632C27.5933 39.6632 27.7344 39.6908 27.854 39.746C27.9766 39.8012 28.0778 39.8779 28.1576 39.976C28.2404 40.0741 28.3017 40.1907 28.3416 40.3256C28.3814 40.4575 28.4014 40.6016 28.4014 40.758C28.4014 40.8193 28.3983 40.8776 28.3922 40.9328C28.386 40.988 28.3799 41.0294 28.3738 41.057H27.0076C27.0382 41.2226 27.1057 41.3453 27.21 41.425C27.3173 41.5017 27.4476 41.54 27.601 41.54C27.7635 41.54 27.9276 41.4894 28.0932 41.3882L28.3186 41.7976C28.202 41.8773 28.0717 41.9402 27.9276 41.9862C27.7865 42.0322 27.647 42.0552 27.509 42.0552ZM27.003 40.6108H27.8264C27.8264 40.482 27.7972 40.3777 27.739 40.298C27.6807 40.2183 27.5826 40.1784 27.4446 40.1784C27.3372 40.1784 27.2422 40.2137 27.1594 40.2842C27.0796 40.3547 27.0275 40.4636 27.003 40.6108ZM30.0646 42.0552C29.9634 42.0552 29.8607 42.0307 29.7564 41.9816C29.6552 41.9295 29.5602 41.8543 29.4712 41.7562H29.4528L29.3976 42H28.8686V38.7754H29.5448V39.5666L29.5264 39.9162C29.6154 39.8365 29.7104 39.7751 29.8116 39.7322C29.9159 39.6862 30.0217 39.6632 30.129 39.6632C30.267 39.6632 30.3912 39.6908 30.5016 39.746C30.612 39.8012 30.7056 39.8794 30.7822 39.9806C30.862 40.0787 30.9218 40.1999 30.9616 40.344C31.0046 40.4851 31.026 40.643 31.026 40.8178C31.026 41.0141 30.9984 41.1889 30.9432 41.3422C30.8911 41.4955 30.819 41.6259 30.727 41.7332C30.6381 41.8375 30.5354 41.9172 30.4188 41.9724C30.3054 42.0276 30.1873 42.0552 30.0646 42.0552ZM29.9082 41.5032C30.0248 41.5032 30.1244 41.4511 30.2072 41.3468C30.29 41.2395 30.3314 41.0677 30.3314 40.8316C30.3314 40.4207 30.1996 40.2152 29.9358 40.2152C29.8009 40.2152 29.6706 40.2842 29.5448 40.4222V41.356C29.6062 41.4112 29.6675 41.4495 29.7288 41.471C29.7902 41.4925 29.85 41.5032 29.9082 41.5032ZM32.4816 42V39.0008H33.2222L33.7052 40.3348C33.7359 40.4237 33.765 40.5157 33.7926 40.6108C33.8202 40.7028 33.8494 40.7948 33.88 40.8868H33.8984C33.9291 40.7948 33.9567 40.7028 33.9812 40.6108C34.0088 40.5157 34.038 40.4237 34.0686 40.3348L34.5424 39.0008H35.2784V42H34.662V40.9006C34.662 40.827 34.6651 40.7457 34.6712 40.6568C34.6774 40.5679 34.685 40.4789 34.6942 40.39C34.7034 40.298 34.7126 40.2091 34.7218 40.1232C34.731 40.0343 34.7402 39.953 34.7494 39.8794H34.731L34.4872 40.5924L34.0594 41.7378H33.6868L33.259 40.5924L33.0198 39.8794H33.0014C33.0106 39.953 33.0198 40.0343 33.029 40.1232C33.0382 40.2091 33.0474 40.298 33.0566 40.39C33.0658 40.4789 33.0735 40.5679 33.0796 40.6568C33.0858 40.7457 33.0888 40.827 33.0888 40.9006V42H32.4816ZM36.9101 42.0552C36.766 42.0552 36.6265 42.0291 36.4915 41.977C36.3566 41.9218 36.237 41.8436 36.1327 41.7424C36.0315 41.6412 35.9503 41.517 35.8889 41.3698C35.8276 41.2195 35.7969 41.0493 35.7969 40.8592C35.7969 40.6691 35.8276 40.5004 35.8889 40.3532C35.9503 40.2029 36.0315 40.0772 36.1327 39.976C36.237 39.8748 36.3566 39.7981 36.4915 39.746C36.6265 39.6908 36.766 39.6632 36.9101 39.6632C37.0543 39.6632 37.1923 39.6908 37.3241 39.746C37.4591 39.7981 37.5771 39.8748 37.6783 39.976C37.7826 40.0772 37.8654 40.2029 37.9267 40.3532C37.9881 40.5004 38.0187 40.6691 38.0187 40.8592C38.0187 41.0493 37.9881 41.2195 37.9267 41.3698C37.8654 41.517 37.7826 41.6412 37.6783 41.7424C37.5771 41.8436 37.4591 41.9218 37.3241 41.977C37.1923 42.0291 37.0543 42.0552 36.9101 42.0552ZM36.9101 41.5078C37.0481 41.5078 37.1524 41.4495 37.2229 41.333C37.2935 41.2165 37.3287 41.0585 37.3287 40.8592C37.3287 40.6599 37.2935 40.5019 37.2229 40.3854C37.1524 40.2689 37.0481 40.2106 36.9101 40.2106C36.7691 40.2106 36.6633 40.2689 36.5927 40.3854C36.5253 40.5019 36.4915 40.6599 36.4915 40.8592C36.4915 41.0585 36.5253 41.2165 36.5927 41.333C36.6633 41.4495 36.7691 41.5078 36.9101 41.5078ZM38.4819 42V39.7184H39.0339L39.0799 40.0082H39.0983C39.1964 39.9162 39.3038 39.8365 39.4203 39.769C39.5368 39.6985 39.6733 39.6632 39.8297 39.6632C40.0781 39.6632 40.2575 39.7445 40.3679 39.907C40.4814 40.0695 40.5381 40.2949 40.5381 40.5832V42H39.8619V40.6706C39.8619 40.505 39.8389 40.3915 39.7929 40.3302C39.75 40.2689 39.6794 40.2382 39.5813 40.2382C39.4954 40.2382 39.4218 40.2581 39.3605 40.298C39.2992 40.3348 39.2317 40.3885 39.1581 40.459V42H38.4819ZM42.1355 42.0552C41.973 42.0552 41.8212 42.0291 41.6801 41.977C41.5391 41.9218 41.4164 41.8436 41.3121 41.7424C41.2079 41.6381 41.1266 41.5124 41.0683 41.3652C41.0101 41.218 40.9809 41.0493 40.9809 40.8592C40.9809 40.6752 41.0116 40.5096 41.0729 40.3624C41.1343 40.2121 41.214 40.0864 41.3121 39.9852C41.4133 39.8809 41.5283 39.8012 41.6571 39.746C41.7859 39.6908 41.9193 39.6632 42.0573 39.6632C42.2199 39.6632 42.3609 39.6908 42.4805 39.746C42.6032 39.8012 42.7044 39.8779 42.7841 39.976C42.8669 40.0741 42.9283 40.1907 42.9681 40.3256C43.008 40.4575 43.0279 40.6016 43.0279 40.758C43.0279 40.8193 43.0249 40.8776 43.0187 40.9328C43.0126 40.988 43.0065 41.0294 43.0003 41.057H41.6341C41.6648 41.2226 41.7323 41.3453 41.8365 41.425C41.9439 41.5017 42.0742 41.54 42.2275 41.54C42.3901 41.54 42.5541 41.4894 42.7197 41.3882L42.9451 41.7976C42.8286 41.8773 42.6983 41.9402 42.5541 41.9862C42.4131 42.0322 42.2735 42.0552 42.1355 42.0552ZM41.6295 40.6108H42.4529C42.4529 40.482 42.4238 40.3777 42.3655 40.298C42.3073 40.2183 42.2091 40.1784 42.0711 40.1784C41.9638 40.1784 41.8687 40.2137 41.7859 40.2842C41.7062 40.3547 41.6541 40.4636 41.6295 40.6108ZM44.3289 42.0552C44.1878 42.0552 44.0667 42.0337 43.9655 41.9908C43.8673 41.9479 43.7861 41.8881 43.7217 41.8114C43.6603 41.7347 43.6143 41.6427 43.5837 41.5354C43.5561 41.425 43.5423 41.3039 43.5423 41.172V40.2474H43.2295V39.746L43.5791 39.7184L43.6573 39.1112H44.2185V39.7184H44.7659V40.2474H44.2185V41.1628C44.2185 41.2916 44.2445 41.3851 44.2967 41.4434C44.3519 41.4986 44.4239 41.5262 44.5129 41.5262C44.5497 41.5262 44.5865 41.5216 44.6233 41.5124C44.6631 41.5032 44.6984 41.4925 44.7291 41.4802L44.8349 41.9724C44.7735 41.9908 44.7015 42.0092 44.6187 42.0276C44.5359 42.046 44.4393 42.0552 44.3289 42.0552ZM45.2112 42V39.7184H45.8874V42H45.2112ZM45.547 39.3826C45.4335 39.3826 45.34 39.3504 45.2664 39.286C45.1928 39.2185 45.156 39.1327 45.156 39.0284C45.156 38.9241 45.1928 38.8398 45.2664 38.7754C45.34 38.711 45.4335 38.6788 45.547 38.6788C45.6635 38.6788 45.7571 38.711 45.8276 38.7754C45.9012 38.8398 45.938 38.9241 45.938 39.0284C45.938 39.1327 45.9012 39.2185 45.8276 39.286C45.7571 39.3504 45.6635 39.3826 45.547 39.3826ZM46.3583 42V41.6366L47.3151 40.2474H46.4641V39.7184H48.1569V40.0772L47.2001 41.471H48.1891V42H46.3583ZM49.1104 42.0552C49.0062 42.0552 48.9111 42.0368 48.8252 42C48.7424 41.9663 48.6719 41.9187 48.6136 41.8574C48.5554 41.793 48.5094 41.7194 48.4756 41.6366C48.445 41.5538 48.4296 41.4633 48.4296 41.3652C48.4296 41.126 48.5308 40.9389 48.7332 40.804C48.9356 40.6691 49.2622 40.5786 49.713 40.5326C49.7069 40.4314 49.6762 40.3517 49.621 40.2934C49.5689 40.2321 49.48 40.2014 49.3542 40.2014C49.2561 40.2014 49.158 40.2198 49.0598 40.2566C48.9648 40.2934 48.862 40.344 48.7516 40.4084L48.5078 39.9622C48.655 39.8733 48.8084 39.8012 48.9678 39.746C49.1304 39.6908 49.3021 39.6632 49.483 39.6632C49.7774 39.6632 50.0013 39.7475 50.1546 39.9162C50.311 40.0818 50.3892 40.3409 50.3892 40.6936V42H49.8372L49.7912 41.7654H49.7728C49.6747 41.8513 49.572 41.9218 49.4646 41.977C49.3573 42.0291 49.2392 42.0552 49.1104 42.0552ZM49.3404 41.5308C49.4171 41.5308 49.483 41.5139 49.5382 41.4802C49.5934 41.4465 49.6517 41.3989 49.713 41.3376V40.9374C49.4738 40.9711 49.3082 41.0202 49.2162 41.0846C49.1242 41.149 49.0782 41.2257 49.0782 41.3146C49.0782 41.3882 49.1012 41.4434 49.1472 41.4802C49.1963 41.5139 49.2607 41.5308 49.3404 41.5308ZM51.7589 42.0552C51.6179 42.0552 51.4967 42.0337 51.3955 41.9908C51.2974 41.9479 51.2161 41.8881 51.1517 41.8114C51.0904 41.7347 51.0444 41.6427 51.0137 41.5354C50.9861 41.425 50.9723 41.3039 50.9723 41.172V40.2474H50.6595V39.746L51.0091 39.7184L51.0873 39.1112H51.6485V39.7184H52.1959V40.2474H51.6485V41.1628C51.6485 41.2916 51.6746 41.3851 51.7267 41.4434C51.7819 41.4986 51.854 41.5262 51.9429 41.5262C51.9797 41.5262 52.0165 41.5216 52.0533 41.5124C52.0932 41.5032 52.1285 41.4925 52.1591 41.4802L52.2649 41.9724C52.2036 41.9908 52.1315 42.0092 52.0487 42.0276C51.9659 42.046 51.8693 42.0552 51.7589 42.0552ZM52.6413 42V39.7184H53.3175V42H52.6413ZM52.9771 39.3826C52.8636 39.3826 52.7701 39.3504 52.6965 39.286C52.6229 39.2185 52.5861 39.1327 52.5861 39.0284C52.5861 38.9241 52.6229 38.8398 52.6965 38.7754C52.7701 38.711 52.8636 38.6788 52.9771 38.6788C53.0936 38.6788 53.1872 38.711 53.2577 38.7754C53.3313 38.8398 53.3681 38.9241 53.3681 39.0284C53.3681 39.1327 53.3313 39.2185 53.2577 39.286C53.1872 39.3504 53.0936 39.3826 52.9771 39.3826ZM54.8924 42.0552C54.7482 42.0552 54.6087 42.0291 54.4738 41.977C54.3388 41.9218 54.2192 41.8436 54.115 41.7424C54.0138 41.6412 53.9325 41.517 53.8712 41.3698C53.8098 41.2195 53.7792 41.0493 53.7792 40.8592C53.7792 40.6691 53.8098 40.5004 53.8712 40.3532C53.9325 40.2029 54.0138 40.0772 54.115 39.976C54.2192 39.8748 54.3388 39.7981 54.4738 39.746C54.6087 39.6908 54.7482 39.6632 54.8924 39.6632C55.0365 39.6632 55.1745 39.6908 55.3064 39.746C55.4413 39.7981 55.5594 39.8748 55.6606 39.976C55.7648 40.0772 55.8476 40.2029 55.909 40.3532C55.9703 40.5004 56.001 40.6691 56.001 40.8592C56.001 41.0493 55.9703 41.2195 55.909 41.3698C55.8476 41.517 55.7648 41.6412 55.6606 41.7424C55.5594 41.8436 55.4413 41.9218 55.3064 41.977C55.1745 42.0291 55.0365 42.0552 54.8924 42.0552ZM54.8924 41.5078C55.0304 41.5078 55.1346 41.4495 55.2052 41.333C55.2757 41.2165 55.311 41.0585 55.311 40.8592C55.311 40.6599 55.2757 40.5019 55.2052 40.3854C55.1346 40.2689 55.0304 40.2106 54.8924 40.2106C54.7513 40.2106 54.6455 40.2689 54.575 40.3854C54.5075 40.5019 54.4738 40.6599 54.4738 40.8592C54.4738 41.0585 54.5075 41.2165 54.575 41.333C54.6455 41.4495 54.7513 41.5078 54.8924 41.5078ZM56.4641 42V39.7184H57.0161L57.0621 40.0082H57.0805C57.1787 39.9162 57.286 39.8365 57.4025 39.769C57.5191 39.6985 57.6555 39.6632 57.8119 39.6632C58.0603 39.6632 58.2397 39.7445 58.3501 39.907C58.4636 40.0695 58.5203 40.2949 58.5203 40.5832V42H57.8441V40.6706C57.8441 40.505 57.8211 40.3915 57.7751 40.3302C57.7322 40.2689 57.6617 40.2382 57.5635 40.2382C57.4777 40.2382 57.4041 40.2581 57.3427 40.298C57.2814 40.3348 57.2139 40.3885 57.1403 40.459V42H56.4641ZM61.9909 41.5216L59.8749 40.7074V40.2382L61.9909 39.424V39.9806L61.1813 40.2474L60.5603 40.4636V40.482L61.1813 40.6982L61.9909 40.965V41.5216ZM63.2665 42.0552C63.0273 42.0552 62.8249 42.0184 62.6593 41.9448C62.4937 41.8681 62.3573 41.7669 62.2499 41.6412L62.5627 41.2134C62.6517 41.2993 62.7483 41.3698 62.8525 41.425C62.9599 41.4802 63.0764 41.5078 63.2021 41.5078C63.3463 41.5078 63.4613 41.4787 63.5471 41.4204C63.633 41.3591 63.6759 41.2732 63.6759 41.1628C63.6759 41.0984 63.6637 41.0401 63.6391 40.988C63.6177 40.9359 63.5778 40.8929 63.5195 40.8592C63.4613 40.8224 63.3815 40.7948 63.2803 40.7764C63.1791 40.7549 63.0488 40.7442 62.8893 40.7442V40.2658C63.0212 40.2658 63.1301 40.2566 63.2159 40.2382C63.3049 40.2198 63.3754 40.1937 63.4275 40.16C63.4827 40.1232 63.5211 40.0818 63.5425 40.0358C63.5671 39.9867 63.5793 39.9331 63.5793 39.8748C63.5793 39.7736 63.5487 39.6954 63.4873 39.6402C63.426 39.5819 63.3371 39.5528 63.2205 39.5528C63.1163 39.5528 63.0212 39.5758 62.9353 39.6218C62.8525 39.6678 62.7651 39.7307 62.6731 39.8104L62.3327 39.3964C62.4677 39.2799 62.6087 39.1894 62.7559 39.125C62.9062 39.0575 63.0718 39.0238 63.2527 39.0238C63.403 39.0238 63.5395 39.0422 63.6621 39.079C63.7879 39.1127 63.8937 39.1649 63.9795 39.2354C64.0685 39.3029 64.1375 39.3857 64.1865 39.4838C64.2356 39.5819 64.2601 39.6954 64.2601 39.8242C64.2601 39.9775 64.2172 40.1079 64.1313 40.2152C64.0485 40.3195 63.9289 40.4053 63.7725 40.4728V40.4912C63.9412 40.5403 64.0792 40.6246 64.1865 40.7442C64.2969 40.8607 64.3521 41.0141 64.3521 41.2042C64.3521 41.3391 64.323 41.4603 64.2647 41.5676C64.2065 41.6719 64.1283 41.7608 64.0301 41.8344C63.932 41.9049 63.817 41.9601 63.6851 42C63.5533 42.0368 63.4137 42.0552 63.2665 42.0552Z" fill="#F3EFEB"/>
</svg>
