<svg width="82" height="89" viewBox="0 0 82 89" fill="none" xmlns="http://www.w3.org/2000/svg">
<rect x="4.225" y="4.225" width="76.55" height="83.55" fill="black" stroke="black" stroke-width="2.45"/>
<rect x="1.225" y="1.225" width="76.55" height="83.55" fill="#F3EFEB" stroke="#8C7BF8" stroke-width="2.45"/>
<path d="M7.84 15.36L7.712 15.84H8.824L8.704 15.36C8.62933 15.0987 8.55733 14.8213 8.488 14.528C8.41867 14.2347 8.34933 13.952 8.28 13.68H8.248C8.184 13.9573 8.11733 14.2427 8.048 14.536C7.984 14.824 7.91467 15.0987 7.84 15.36ZM5.952 18L7.584 12.784H9L10.632 18H9.384L9.064 16.76H7.472L7.152 18H5.952ZM12.2979 18.096C11.8659 18.096 11.5513 17.9547 11.3539 17.672C11.1619 17.3893 11.0659 16.9973 11.0659 16.496V14.032H12.2419V16.344C12.2419 16.632 12.2819 16.8293 12.3619 16.936C12.4419 17.0427 12.5673 17.096 12.7379 17.096C12.8873 17.096 13.0126 17.0613 13.1139 16.992C13.2153 16.9227 13.3246 16.8107 13.4419 16.656V14.032H14.6179V18H13.6579L13.5699 17.448H13.5459C13.3753 17.6507 13.1913 17.8107 12.9939 17.928C12.8019 18.04 12.5699 18.096 12.2979 18.096ZM17.0688 18.096C16.8235 18.096 16.5995 18.048 16.3968 17.952C16.1995 17.856 16.0288 17.72 15.8848 17.544C15.7461 17.3627 15.6368 17.144 15.5568 16.888C15.4821 16.632 15.4448 16.3413 15.4448 16.016C15.4448 15.6907 15.4901 15.4 15.5808 15.144C15.6768 14.888 15.7995 14.672 15.9488 14.496C16.1035 14.3147 16.2795 14.176 16.4768 14.08C16.6795 13.984 16.8848 13.936 17.0928 13.936C17.3168 13.936 17.5008 13.9733 17.6448 14.048C17.7888 14.1227 17.9301 14.224 18.0688 14.352L18.0208 13.744V12.392H19.1968V18H18.2368L18.1568 17.608H18.1248C17.9861 17.7467 17.8235 17.864 17.6368 17.96C17.4501 18.0507 17.2608 18.096 17.0688 18.096ZM17.3728 17.136C17.5008 17.136 17.6155 17.1093 17.7168 17.056C17.8235 17.0027 17.9248 16.9093 18.0208 16.776V15.152C17.9141 15.056 17.8048 14.9893 17.6928 14.952C17.5808 14.9147 17.4715 14.896 17.3648 14.896C17.1781 14.896 17.0128 14.9867 16.8688 15.168C16.7248 15.344 16.6528 15.6213 16.6528 16C16.6528 16.3947 16.7141 16.6827 16.8368 16.864C16.9648 17.0453 17.1435 17.136 17.3728 17.136ZM22.0148 18.096C21.7321 18.096 21.4681 18.0507 21.2228 17.96C20.9774 17.864 20.7641 17.728 20.5828 17.552C20.4014 17.3707 20.2601 17.152 20.1588 16.896C20.0574 16.64 20.0068 16.3467 20.0068 16.016C20.0068 15.696 20.0601 15.408 20.1668 15.152C20.2734 14.8907 20.4121 14.672 20.5828 14.496C20.7588 14.3147 20.9588 14.176 21.1828 14.08C21.4068 13.984 21.6388 13.936 21.8788 13.936C22.1614 13.936 22.4068 13.984 22.6148 14.08C22.8281 14.176 23.0041 14.3093 23.1428 14.48C23.2868 14.6507 23.3934 14.8533 23.4628 15.088C23.5321 15.3173 23.5668 15.568 23.5668 15.84C23.5668 15.9467 23.5614 16.048 23.5508 16.144C23.5401 16.24 23.5294 16.312 23.5188 16.36H21.1428C21.1961 16.648 21.3134 16.8613 21.4948 17C21.6814 17.1333 21.9081 17.2 22.1748 17.2C22.4574 17.2 22.7428 17.112 23.0308 16.936L23.4228 17.648C23.2201 17.7867 22.9934 17.896 22.7428 17.976C22.4974 18.056 22.2548 18.096 22.0148 18.096ZM21.1348 15.584H22.5668C22.5668 15.36 22.5161 15.1787 22.4148 15.04C22.3134 14.9013 22.1428 14.832 21.9028 14.832C21.7161 14.832 21.5508 14.8933 21.4068 15.016C21.2681 15.1387 21.1774 15.328 21.1348 15.584ZM24.3794 18V14.032H25.3394L25.4194 14.536H25.4514C25.622 14.376 25.8087 14.2373 26.0114 14.12C26.214 13.9973 26.4514 13.936 26.7234 13.936C27.1554 13.936 27.4674 14.0773 27.6594 14.36C27.8567 14.6427 27.9554 15.0347 27.9554 15.536V18H26.7794V15.688C26.7794 15.4 26.7394 15.2027 26.6594 15.096C26.5847 14.9893 26.462 14.936 26.2914 14.936C26.142 14.936 26.014 14.9707 25.9074 15.04C25.8007 15.104 25.6834 15.1973 25.5554 15.32V18H24.3794ZM31.9751 18.096C31.6924 18.096 31.4417 18.056 31.2231 17.976C31.0097 17.896 30.8284 17.7893 30.6791 17.656C30.5351 17.5173 30.4257 17.36 30.3511 17.184C30.2764 17.0027 30.2391 16.8107 30.2391 16.608C30.2391 16.4267 30.2631 16.264 30.3111 16.12C30.3644 15.9707 30.4337 15.8373 30.5191 15.72C30.6097 15.6027 30.7111 15.496 30.8231 15.4C30.9404 15.304 31.0631 15.216 31.1911 15.136C31.0897 14.9493 31.0097 14.7653 30.9511 14.584C30.8977 14.3973 30.8711 14.2213 30.8711 14.056C30.8711 13.8693 30.9031 13.6933 30.9671 13.528C31.0364 13.3627 31.1324 13.2187 31.2551 13.096C31.3777 12.968 31.5244 12.8693 31.6951 12.8C31.8711 12.7253 32.0684 12.688 32.2871 12.688C32.6817 12.688 32.9937 12.7947 33.2231 13.008C33.4524 13.2213 33.5671 13.5093 33.5671 13.872C33.5671 14.0427 33.5351 14.2 33.4711 14.344C33.4124 14.4827 33.3297 14.6133 33.2231 14.736C33.1217 14.8533 33.0044 14.9627 32.8711 15.064C32.7431 15.1653 32.6124 15.2613 32.4791 15.352C32.6284 15.5227 32.7911 15.6907 32.9671 15.856C33.1484 16.016 33.3351 16.1653 33.5271 16.304C33.6604 16.1333 33.7777 15.944 33.8791 15.736C33.9804 15.528 34.0631 15.3013 34.1271 15.056H35.1991C35.1031 15.376 34.9831 15.6827 34.8391 15.976C34.7004 16.264 34.5297 16.544 34.3271 16.816C34.4924 16.9013 34.6497 16.9733 34.7991 17.032C34.9537 17.0853 35.0977 17.1227 35.2311 17.144L34.9511 18.096C34.7324 18.0533 34.5111 17.9867 34.2871 17.896C34.0631 17.8053 33.8391 17.696 33.6151 17.568C33.3911 17.7333 33.1431 17.864 32.8711 17.96C32.6044 18.0507 32.3057 18.096 31.9751 18.096ZM31.8391 14.048C31.8391 14.144 31.8524 14.2453 31.8791 14.352C31.9111 14.4587 31.9537 14.5653 32.0071 14.672C32.1937 14.56 32.3511 14.4427 32.4791 14.32C32.6071 14.1973 32.6711 14.048 32.6711 13.872C32.6711 13.7493 32.6417 13.6507 32.5831 13.576C32.5244 13.5013 32.4337 13.464 32.3111 13.464C32.1777 13.464 32.0657 13.5173 31.9751 13.624C31.8844 13.7253 31.8391 13.8667 31.8391 14.048ZM32.1271 17.2C32.3457 17.2 32.5644 17.1307 32.7831 16.992C32.5804 16.8267 32.3884 16.6533 32.2071 16.472C32.0257 16.2907 31.8577 16.104 31.7031 15.912C31.5964 16.0027 31.5111 16.0987 31.4471 16.2C31.3831 16.3013 31.3511 16.4133 31.3511 16.536C31.3511 16.7333 31.4204 16.8933 31.5591 17.016C31.7031 17.1387 31.8924 17.2 32.1271 17.2ZM39.7686 18.096C39.4379 18.096 39.1259 18.04 38.8326 17.928C38.5392 17.8107 38.2806 17.64 38.0566 17.416C37.8379 17.192 37.6646 16.9147 37.5366 16.584C37.4086 16.248 37.3446 15.8613 37.3446 15.424C37.3446 14.992 37.4112 14.608 37.5446 14.272C37.6779 13.9307 37.8566 13.6427 38.0806 13.408C38.3046 13.1733 38.5659 12.9947 38.8646 12.872C39.1632 12.7493 39.4779 12.688 39.8086 12.688C40.1446 12.688 40.4459 12.7573 40.7126 12.896C40.9792 13.0293 41.2006 13.1867 41.3766 13.368L40.7526 14.12C40.6192 13.9973 40.4779 13.8987 40.3286 13.824C40.1846 13.744 40.0192 13.704 39.8326 13.704C39.6566 13.704 39.4886 13.744 39.3286 13.824C39.1739 13.8987 39.0379 14.008 38.9206 14.152C38.8086 14.296 38.7179 14.472 38.6486 14.68C38.5846 14.888 38.5526 15.1227 38.5526 15.384C38.5526 15.9227 38.6672 16.3413 38.8966 16.64C39.1259 16.9333 39.4326 17.08 39.8166 17.08C40.0299 17.08 40.2192 17.0347 40.3846 16.944C40.5552 16.848 40.7046 16.7307 40.8326 16.592L41.4566 17.328C41.0192 17.84 40.4566 18.096 39.7686 18.096ZM42.1528 18V12.392H43.3288V13.768L43.2728 14.48C43.4221 14.3467 43.5955 14.224 43.7928 14.112C43.9901 13.9947 44.2248 13.936 44.4968 13.936C44.9288 13.936 45.2408 14.0773 45.4328 14.36C45.6301 14.6427 45.7288 15.0347 45.7288 15.536V18H44.5528V15.688C44.5528 15.4 44.5128 15.2027 44.4328 15.096C44.3581 14.9893 44.2355 14.936 44.0648 14.936C43.9155 14.936 43.7875 14.9707 43.6808 15.04C43.5741 15.104 43.4568 15.1973 43.3288 15.32V18H42.1528ZM46.7231 18V14.032H47.8991V18H46.7231ZM47.3071 13.448C47.1098 13.448 46.9471 13.392 46.8191 13.28C46.6911 13.1627 46.6271 13.0133 46.6271 12.832C46.6271 12.6507 46.6911 12.504 46.8191 12.392C46.9471 12.28 47.1098 12.224 47.3071 12.224C47.5098 12.224 47.6725 12.28 47.7951 12.392C47.9231 12.504 47.9871 12.6507 47.9871 12.832C47.9871 13.0133 47.9231 13.1627 47.7951 13.28C47.6725 13.392 47.5098 13.448 47.3071 13.448ZM50.6621 18.096C50.3847 18.096 50.1261 18.0507 49.8861 17.96C49.6514 17.864 49.4461 17.728 49.2701 17.552C49.0941 17.376 48.9554 17.16 48.8541 16.904C48.7527 16.6427 48.7021 16.3467 48.7021 16.016C48.7021 15.6853 48.7581 15.392 48.8701 15.136C48.9821 14.8747 49.1314 14.656 49.3181 14.48C49.5101 14.304 49.7314 14.1707 49.9821 14.08C50.2327 13.984 50.4941 13.936 50.7661 13.936C51.0114 13.936 51.2274 13.976 51.4141 14.056C51.6061 14.136 51.7767 14.2373 51.9261 14.36L51.3741 15.12C51.1874 14.9653 51.0087 14.888 50.8381 14.888C50.5501 14.888 50.3234 14.9893 50.1581 15.192C49.9927 15.3947 49.9101 15.6693 49.9101 16.016C49.9101 16.3627 49.9927 16.6373 50.1581 16.84C50.3287 17.0427 50.5421 17.144 50.7981 17.144C50.9261 17.144 51.0487 17.1173 51.1661 17.064C51.2887 17.0053 51.4034 16.936 51.5101 16.856L51.9741 17.624C51.7767 17.7947 51.5634 17.9173 51.3341 17.992C51.1047 18.0613 50.8807 18.096 50.6621 18.096ZM52.6684 18V12.392H53.8124V15.608H53.8444L55.1004 14.032H56.3804L54.9884 15.664L56.4844 18H55.2124L54.3164 16.456L53.8124 17.024V18H52.6684ZM58.6007 18.096C58.318 18.096 58.054 18.0507 57.8087 17.96C57.5634 17.864 57.35 17.728 57.1687 17.552C56.9874 17.3707 56.846 17.152 56.7447 16.896C56.6434 16.64 56.5927 16.3467 56.5927 16.016C56.5927 15.696 56.646 15.408 56.7527 15.152C56.8594 14.8907 56.998 14.672 57.1687 14.496C57.3447 14.3147 57.5447 14.176 57.7687 14.08C57.9927 13.984 58.2247 13.936 58.4647 13.936C58.7474 13.936 58.9927 13.984 59.2007 14.08C59.414 14.176 59.59 14.3093 59.7287 14.48C59.8727 14.6507 59.9794 14.8533 60.0487 15.088C60.118 15.3173 60.1527 15.568 60.1527 15.84C60.1527 15.9467 60.1474 16.048 60.1367 16.144C60.126 16.24 60.1154 16.312 60.1047 16.36H57.7287C57.782 16.648 57.8994 16.8613 58.0807 17C58.2674 17.1333 58.494 17.2 58.7607 17.2C59.0434 17.2 59.3287 17.112 59.6167 16.936L60.0087 17.648C59.806 17.7867 59.5794 17.896 59.3287 17.976C59.0834 18.056 58.8407 18.096 58.6007 18.096ZM57.7207 15.584H59.1527C59.1527 15.36 59.102 15.1787 59.0007 15.04C58.8994 14.9013 58.7287 14.832 58.4887 14.832C58.302 14.832 58.1367 14.8933 57.9927 15.016C57.854 15.1387 57.7634 15.328 57.7207 15.584ZM60.9653 18V14.032H61.9253L62.0053 14.536H62.0373C62.208 14.376 62.3946 14.2373 62.5973 14.12C62.8 13.9973 63.0373 13.936 63.3093 13.936C63.7413 13.936 64.0533 14.0773 64.2453 14.36C64.4426 14.6427 64.5413 15.0347 64.5413 15.536V18H63.3653V15.688C63.3653 15.4 63.3253 15.2027 63.2453 15.096C63.1706 14.9893 63.048 14.936 62.8773 14.936C62.728 14.936 62.6 14.9707 62.4933 15.04C62.3866 15.104 62.2693 15.1973 62.1413 15.32V18H60.9653ZM7.84 23.36L7.712 23.84H8.824L8.704 23.36C8.62933 23.0987 8.55733 22.8213 8.488 22.528C8.41867 22.2347 8.34933 21.952 8.28 21.68H8.248C8.184 21.9573 8.11733 22.2427 8.048 22.536C7.984 22.824 7.91467 23.0987 7.84 23.36ZM5.952 26L7.584 20.784H9L10.632 26H9.384L9.064 24.76H7.472L7.152 26H5.952ZM12.5219 26.096C12.2766 26.096 12.0526 26.048 11.8499 25.952C11.6526 25.856 11.4819 25.72 11.3379 25.544C11.1993 25.3627 11.0899 25.144 11.0099 24.888C10.9353 24.632 10.8979 24.3413 10.8979 24.016C10.8979 23.6907 10.9433 23.4 11.0339 23.144C11.1299 22.888 11.2526 22.672 11.4019 22.496C11.5566 22.3147 11.7326 22.176 11.9299 22.08C12.1326 21.984 12.3379 21.936 12.5459 21.936C12.7699 21.936 12.9539 21.9733 13.0979 22.048C13.2419 22.1227 13.3833 22.224 13.5219 22.352L13.4739 21.744V20.392H14.6499V26H13.6899L13.6099 25.608H13.5779C13.4393 25.7467 13.2766 25.864 13.0899 25.96C12.9033 26.0507 12.7139 26.096 12.5219 26.096ZM12.8259 25.136C12.9539 25.136 13.0686 25.1093 13.1699 25.056C13.2766 25.0027 13.3779 24.9093 13.4739 24.776V23.152C13.3673 23.056 13.2579 22.9893 13.1459 22.952C13.0339 22.9147 12.9246 22.896 12.8179 22.896C12.6313 22.896 12.4659 22.9867 12.3219 23.168C12.1779 23.344 12.1059 23.6213 12.1059 24C12.1059 24.3947 12.1673 24.6827 12.2899 24.864C12.4179 25.0453 12.5966 25.136 12.8259 25.136ZM16.6039 26L15.2679 22.032H16.4519L16.9639 23.904C17.0172 24.1013 17.0679 24.304 17.1159 24.512C17.1692 24.7147 17.2225 24.92 17.2759 25.128H17.3079C17.3559 24.92 17.4039 24.7147 17.4519 24.512C17.5052 24.304 17.5585 24.1013 17.6119 23.904L18.1319 22.032H19.2599L17.9639 26H16.6039ZM21.5929 26.096C21.3102 26.096 21.0462 26.0507 20.8009 25.96C20.5555 25.864 20.3422 25.728 20.1609 25.552C19.9795 25.3707 19.8382 25.152 19.7369 24.896C19.6355 24.64 19.5849 24.3467 19.5849 24.016C19.5849 23.696 19.6382 23.408 19.7449 23.152C19.8515 22.8907 19.9902 22.672 20.1609 22.496C20.3369 22.3147 20.5369 22.176 20.7609 22.08C20.9849 21.984 21.2169 21.936 21.4569 21.936C21.7395 21.936 21.9849 21.984 22.1929 22.08C22.4062 22.176 22.5822 22.3093 22.7209 22.48C22.8649 22.6507 22.9715 22.8533 23.0409 23.088C23.1102 23.3173 23.1449 23.568 23.1449 23.84C23.1449 23.9467 23.1395 24.048 23.1289 24.144C23.1182 24.24 23.1075 24.312 23.0969 24.36H20.7209C20.7742 24.648 20.8915 24.8613 21.0729 25C21.2595 25.1333 21.4862 25.2 21.7529 25.2C22.0355 25.2 22.3209 25.112 22.6089 24.936L23.0009 25.648C22.7982 25.7867 22.5715 25.896 22.3209 25.976C22.0755 26.056 21.8329 26.096 21.5929 26.096ZM20.7129 23.584H22.1449C22.1449 23.36 22.0942 23.1787 21.9929 23.04C21.8915 22.9013 21.7209 22.832 21.4809 22.832C21.2942 22.832 21.1289 22.8933 20.9849 23.016C20.8462 23.1387 20.7555 23.328 20.7129 23.584ZM23.9575 26V22.032H24.9175L24.9975 22.536H25.0295C25.2002 22.376 25.3868 22.2373 25.5895 22.12C25.7922 21.9973 26.0295 21.936 26.3015 21.936C26.7335 21.936 27.0455 22.0773 27.2375 22.36C27.4348 22.6427 27.5335 23.0347 27.5335 23.536V26H26.3575V23.688C26.3575 23.4 26.3175 23.2027 26.2375 23.096C26.1628 22.9893 26.0402 22.936 25.8695 22.936C25.7202 22.936 25.5922 22.9707 25.4855 23.04C25.3788 23.104 25.2615 23.1973 25.1335 23.32V26H23.9575ZM30.0636 26.096C29.8183 26.096 29.6076 26.0587 29.4316 25.984C29.261 25.9093 29.1196 25.8053 29.0076 25.672C28.901 25.5387 28.821 25.3787 28.7676 25.192C28.7196 25 28.6956 24.7893 28.6956 24.56V22.952H28.1516V22.08L28.7596 22.032L28.8956 20.976H29.8716V22.032H30.8236V22.952H29.8716V24.544C29.8716 24.768 29.917 24.9307 30.0076 25.032C30.1036 25.128 30.229 25.176 30.3836 25.176C30.4476 25.176 30.5116 25.168 30.5756 25.152C30.645 25.136 30.7063 25.1173 30.7596 25.096L30.9436 25.952C30.837 25.984 30.7116 26.016 30.5676 26.048C30.4236 26.08 30.2556 26.096 30.0636 26.096ZM32.7901 26.096C32.3581 26.096 32.0435 25.9547 31.8461 25.672C31.6541 25.3893 31.5581 24.9973 31.5581 24.496V22.032H32.7341V24.344C32.7341 24.632 32.7741 24.8293 32.8541 24.936C32.9341 25.0427 33.0595 25.096 33.2301 25.096C33.3795 25.096 33.5048 25.0613 33.6061 24.992C33.7075 24.9227 33.8168 24.8107 33.9341 24.656V22.032H35.1101V26H34.1501L34.0621 25.448H34.0381C33.8675 25.6507 33.6835 25.8107 33.4861 25.928C33.2941 26.04 33.0621 26.096 32.7901 26.096ZM36.145 26V22.032H37.105L37.185 22.728H37.217C37.361 22.456 37.5343 22.256 37.737 22.128C37.9397 22 38.1423 21.936 38.345 21.936C38.457 21.936 38.5477 21.944 38.617 21.96C38.6917 21.9707 38.7583 21.9893 38.817 22.016L38.625 23.032C38.5503 23.0107 38.481 22.9947 38.417 22.984C38.353 22.9733 38.2783 22.968 38.193 22.968C38.0437 22.968 37.8863 23.0213 37.721 23.128C37.561 23.2347 37.4277 23.424 37.321 23.696V26H36.145ZM41.0304 26.096C40.7477 26.096 40.4837 26.0507 40.2384 25.96C39.993 25.864 39.7797 25.728 39.5984 25.552C39.417 25.3707 39.2757 25.152 39.1744 24.896C39.073 24.64 39.0224 24.3467 39.0224 24.016C39.0224 23.696 39.0757 23.408 39.1824 23.152C39.289 22.8907 39.4277 22.672 39.5984 22.496C39.7744 22.3147 39.9744 22.176 40.1984 22.08C40.4224 21.984 40.6544 21.936 40.8944 21.936C41.177 21.936 41.4224 21.984 41.6304 22.08C41.8437 22.176 42.0197 22.3093 42.1584 22.48C42.3024 22.6507 42.409 22.8533 42.4784 23.088C42.5477 23.3173 42.5824 23.568 42.5824 23.84C42.5824 23.9467 42.577 24.048 42.5664 24.144C42.5557 24.24 42.545 24.312 42.5344 24.36H40.1584C40.2117 24.648 40.329 24.8613 40.5104 25C40.697 25.1333 40.9237 25.2 41.1904 25.2C41.473 25.2 41.7584 25.112 42.0464 24.936L42.4384 25.648C42.2357 25.7867 42.009 25.896 41.7584 25.976C41.513 26.056 41.2704 26.096 41.0304 26.096ZM40.1504 23.584H41.5824C41.5824 23.36 41.5317 23.1787 41.4304 23.04C41.329 22.9013 41.1584 22.832 40.9184 22.832C40.7317 22.832 40.5664 22.8933 40.4224 23.016C40.2837 23.1387 40.193 23.328 40.1504 23.584ZM44.563 26.096C44.3017 26.096 44.0323 26.0453 43.755 25.944C43.483 25.8427 43.2457 25.7093 43.043 25.544L43.571 24.808C43.7523 24.9467 43.9257 25.0507 44.091 25.12C44.2563 25.1893 44.4243 25.224 44.595 25.224C44.771 25.224 44.899 25.1947 44.979 25.136C45.059 25.0773 45.099 24.9947 45.099 24.888C45.099 24.824 45.075 24.768 45.027 24.72C44.9843 24.6667 44.923 24.6187 44.843 24.576C44.7683 24.5333 44.683 24.496 44.587 24.464C44.491 24.4267 44.3923 24.3867 44.291 24.344C44.1683 24.296 44.0457 24.24 43.923 24.176C43.8003 24.112 43.6883 24.0347 43.587 23.944C43.4857 23.848 43.403 23.7387 43.339 23.616C43.275 23.488 43.243 23.3413 43.243 23.176C43.243 22.9947 43.2777 22.8267 43.347 22.672C43.4217 22.5173 43.5257 22.3867 43.659 22.28C43.7923 22.1733 43.9523 22.0907 44.139 22.032C44.3257 21.968 44.5337 21.936 44.763 21.936C45.067 21.936 45.3337 21.9893 45.563 22.096C45.7923 22.1973 45.9923 22.312 46.163 22.44L45.635 23.144C45.491 23.0373 45.3497 22.9547 45.211 22.896C45.0723 22.8373 44.9337 22.808 44.795 22.808C44.4963 22.808 44.347 22.912 44.347 23.12C44.347 23.184 44.3683 23.24 44.411 23.288C44.4537 23.3307 44.5097 23.3707 44.579 23.408C44.6537 23.4453 44.7363 23.4827 44.827 23.52C44.923 23.552 45.0217 23.5867 45.123 23.624C45.251 23.672 45.3763 23.728 45.499 23.792C45.627 23.8507 45.7417 23.9253 45.843 24.016C45.9497 24.1067 46.035 24.2187 46.099 24.352C46.163 24.48 46.195 24.6347 46.195 24.816C46.195 24.9973 46.1603 25.1653 46.091 25.32C46.0217 25.4747 45.9177 25.6107 45.779 25.728C45.6403 25.84 45.4697 25.9307 45.267 26C45.0643 26.064 44.8297 26.096 44.563 26.096ZM47.3979 24.152L47.2299 21.704L47.1899 20.64H48.3739L48.3339 21.704L48.1659 24.152H47.3979ZM47.7819 26.096C47.5792 26.096 47.4085 26.0267 47.2699 25.888C47.1365 25.744 47.0699 25.568 47.0699 25.36C47.0699 25.1467 47.1365 24.9707 47.2699 24.832C47.4085 24.688 47.5792 24.616 47.7819 24.616C47.9845 24.616 48.1525 24.688 48.2859 24.832C48.4245 24.9707 48.4939 25.1467 48.4939 25.36C48.4939 25.568 48.4245 25.744 48.2859 25.888C48.1525 26.0267 47.9845 26.096 47.7819 26.096Z" fill="#8C7BF8"/>
<rect x="6" y="50" width="12" height="12" rx="6" fill="#8C7BF8"/>
<rect x="20" y="50" width="38" height="2" rx="1" fill="#8C7BF8"/>
<rect x="20" y="53" width="38" height="2" rx="1" fill="#8C7BF8"/>
<rect x="20" y="56" width="38" height="2" rx="1" fill="#8C7BF8"/>
<rect x="20" y="59" width="21" height="2" rx="1" fill="#8C7BF8"/>
<rect x="6" y="33" width="12" height="12" rx="6" fill="#8C7BF8"/>
<rect x="20" y="33" width="38" height="2" rx="1" fill="#8C7BF8"/>
<rect x="20" y="36" width="38" height="2" rx="1" fill="#8C7BF8"/>
<rect x="20" y="39" width="38" height="2" rx="1" fill="#8C7BF8"/>
<rect x="20" y="42" width="21" height="2" rx="1" fill="#8C7BF8"/>
<rect x="5" y="65" width="67" height="15" rx="3" fill="#8C7BF8"/>
<rect x="1" y="1" width="76" height="8" fill="#8C7BF8"/>
<rect x="3" y="3" width="57" height="3" rx="1.5" fill="#F3EFEB"/>
<rect x="75" y="2" width="2" height="2" rx="1" fill="#F3EFEB"/>
<rect x="72" y="2" width="2" height="2" rx="1" fill="#F3EFEB"/>
<rect x="69" y="2" width="2" height="2" rx="1" fill="#F3EFEB"/>
</svg>
