<svg width="240" height="240" viewBox="0 0 240 240" fill="none" xmlns="http://www.w3.org/2000/svg">
<circle cx="120" cy="120" r="120" fill="#FFB566"/>
<path d="M116.369 53.655C112.982 57.8417 114.676 55.7484 111.767 60.0827C108.857 64.417 57.4899 119.443 57.4899 119.443C57.4899 119.443 53.1476 123.334 55.2758 126.609C57.4041 129.883 66.8456 134.893 66.8456 134.893C66.8456 134.893 74.6483 137.304 77.8523 135.404C81.0563 133.503 109.558 106.749 109.558 106.749L92.097 151.404C94.0112 152.373 95.5257 152.953 96.3432 152.904C97.163 152.856 101.01 153.045 102.939 149.709C110.399 136.815 123.956 103.622 123.956 103.622L120.679 170.118C120.679 170.118 121.036 179.125 142.238 186.723C163.44 194.321 197.484 160.357 197.484 160.357L191.991 112.084C191.991 112.084 189.47 98.2222 189.105 96.0161C188.74 93.81 191.988 83.3003 190.007 79.5484C188.027 75.7964 188.322 74.841 182.554 71.4889C176.787 68.1368 171.089 67.9463 171.089 67.9463C171.089 67.9463 157.539 55.9095 154.012 53.7732C150.486 51.6368 143.945 49.0926 136.337 48.3116C128.728 47.5306 119.756 49.4683 116.369 53.655Z" fill="white"/>
<path d="M132.616 49.062L112.788 60.7284L120.153 50.4441L132.616 49.062Z" fill="#FFB566"/>
<path d="M136.873 55.6104L147.868 52.2047L149.266 51.0668L172.406 67.6366L181.005 70.2935L190.369 78.9434L190.387 94.1256L193.377 114.936L190.833 121.476L188.514 123.9L183.772 124.004L181.41 131.648L177.693 135.209L171.37 135.349L165.933 132.622L160.243 125.631L156.759 118.274L156.88 109.415L138.249 103.658L134.436 95.6768L128.225 93.7579L118.671 90.8057L116.916 82.9368L117.506 81.0259L122.657 77.9074L136.873 55.6104Z" fill="#FFB566"/>
<path d="M117.061 53.6754C113.674 57.8621 115.367 55.7688 112.458 60.1031C109.549 64.4374 58.1814 119.463 58.1814 119.463C58.1814 119.463 53.839 123.355 55.9672 126.629C58.0955 129.903 61.2308 132.442 65.7738 133.846C70.3168 135.249 74.0973 135.7 77.9421 133.419C81.7869 131.138 110.25 106.769 110.25 106.769L92.7885 151.424C94.7026 152.393 96.2171 152.973 97.0346 152.925C97.8544 152.876 101.701 153.065 103.631 149.73C111.091 136.835 124.648 103.642 124.648 103.642L121.371 170.139C121.371 170.139 121.728 179.145 142.93 186.743C164.132 194.341 198.176 160.378 198.176 160.378L192.682 112.104C192.682 112.104 190.162 98.2426 189.797 96.0365C189.432 93.8304 192.679 83.3207 190.699 79.5687C188.718 75.8168 189.013 74.8614 183.246 71.5093C177.478 68.1572 171.781 67.9667 171.781 67.9667C171.781 67.9667 158.23 55.9298 154.704 53.7935C151.177 51.6572 144.637 49.113 137.028 48.332C129.42 47.551 120.448 49.4887 117.061 53.6754Z" stroke="black" stroke-width="4" stroke-linejoin="round"/>
<circle cx="139.462" cy="72.6337" r="3" transform="rotate(17.1706 139.462 72.6337)" stroke="black" stroke-width="3"/>
<path d="M74.8467 129.673C73.4175 132.966 67.9465 133.764 62.6269 131.455C57.3073 129.147 54.1535 124.606 55.5827 121.313C57.0118 118.019 62.4828 117.221 67.8024 119.53C73.122 121.839 76.2759 126.38 74.8467 129.673Z" fill="black"/>
<path d="M190.372 91.7884C189.038 93.3954 187.539 95.6398 185.155 94.9033C183.953 94.5319 183.049 92.3617 184.634 92.8515C186.57 93.4498 187.58 93.4903 188.435 95.3388C189.325 97.265 189.933 99.2132 190.51 101.285C192.304 107.724 192.942 115.273 190.602 121.638C189.151 125.585 183.187 124.218 181.069 121.896C179.803 120.508 178.163 117.13 177.624 115.369C176.746 112.506 180.695 114.484 181.529 115.053C183.662 116.506 184.365 117.838 184.063 120.195C183.518 124.448 182.556 133.07 177.894 135.147C175.14 136.374 168.561 135.054 166.434 132.972C160.389 127.055 156.718 121.528 156.51 112.994C156.414 109.1 157.525 105.722 158.354 102.01C158.931 99.4311 159.039 96.8211 159.826 94.2719C160.925 90.7157 162.418 87.4096 164.35 84.2206" stroke="black" stroke-width="2" stroke-linecap="round" stroke-linejoin="round"/>
<path d="M137.094 139.37C135.423 141.381 131.382 144.866 131.818 147.905C132.086 149.767 134.637 152.147 136.631 151.669C138.589 151.199 139.039 147.767 136.49 148.107C135.016 148.304 132.278 151.41 131.653 152.795C129.353 157.89 130.996 166.354 137.027 168.217" stroke="black" stroke-width="2" stroke-linecap="round" stroke-linejoin="round"/>
<path d="M110.856 105.287C110.451 105.768 109.215 103.215 113.015 106.851C117.054 110.716 95.3529 152.156 95.3529 152.156L92.3041 150.167C92.3041 150.167 109.628 108.063 110.856 105.287Z" fill="black"/>
<path d="M88.5933 139.315C89.3624 136.826 99.704 126.15 101.149 126.856C102.594 127.562 94.9039 147.524 92.7586 147.147C90.6134 146.77 90.5727 146.471 88.8483 144.302C87.1239 142.133 87.8241 141.804 88.5933 139.315Z" fill="black"/>
<path d="M90.5316 139.156C91.2697 136.767 101.294 126.53 102.551 127.167C103.808 127.805 95.8974 146.819 94.0152 146.512C92.133 146.205 92.1043 145.921 90.6363 143.898C89.1683 141.874 89.7936 141.544 90.5316 139.156Z" fill="#FFB566"/>
<path d="M140.298 48.834C137.66 48.0189 136.918 46.9812 135.166 45.1083C134.132 44.0027 132.713 42.8692 132.008 41.5341C131.153 39.9146 129.329 38.7287 128.39 37.1386C127.843 36.2113 127.385 34.7995 127.218 33.7875" stroke="black" stroke-linecap="round" stroke-linejoin="round"/>
<rect x="45.1492" y="153.39" width="26.9655" height="36.3448" rx="3" stroke="black" stroke-width="3" stroke-linejoin="round"/>
<path d="M52.1836 144.856C51.3552 144.856 50.6836 145.528 50.6836 146.356C50.6836 147.184 51.3552 147.856 52.1836 147.856V144.856ZM77.6491 179.184C77.6491 180.012 78.3207 180.684 79.1491 180.684C79.9775 180.684 80.6491 180.012 80.6491 179.184H77.6491ZM52.1836 147.856H76.1491V144.856H52.1836V147.856ZM77.6491 149.356V179.184H80.6491V149.356H77.6491ZM76.1491 147.856C76.9775 147.856 77.6491 148.528 77.6491 149.356H80.6491C80.6491 146.871 78.6344 144.856 76.1491 144.856V147.856Z" fill="black"/>
</svg>
