<svg width="475" height="221" viewBox="0 0 475 221" fill="none" xmlns="http://www.w3.org/2000/svg">
<path d="M32.8004 80.5238C31.0527 78.194 27.7473 77.7222 25.4176 79.4699C23.0879 81.2176 22.616 84.523 24.3637 86.8527L32.8004 80.5238ZM463.194 30.584C462.689 27.7157 459.955 25.7995 457.086 26.3041L410.344 34.5268C407.476 35.0314 405.56 37.7657 406.064 40.634C406.569 43.5023 409.303 45.4185 412.172 44.914L453.72 37.6049L461.029 79.1535C461.534 82.0219 464.268 83.9381 467.136 83.4335C470.005 82.9289 471.921 80.1946 471.416 77.3263L463.194 30.584ZM28.582 83.6882C24.3637 86.8527 24.3656 86.8551 24.3677 86.8579C24.3687 86.8594 24.3711 86.8625 24.3733 86.8654C24.3776 86.8711 24.383 86.8783 24.3895 86.8869C24.4026 86.9042 24.4202 86.9274 24.4423 86.9564C24.4864 87.0143 24.5486 87.0953 24.6286 87.1985C24.7888 87.4051 25.0207 87.7008 25.3242 88.079C25.9311 88.8355 26.8244 89.9226 28.0023 91.2881C30.3577 94.0186 33.8534 97.865 38.4745 102.408C47.7125 111.489 61.4743 123.379 79.6407 134.696C116.014 157.357 170.05 177.716 240.566 168.626L239.218 158.166C171.579 166.885 119.961 147.39 85.2176 125.745C67.8258 114.91 54.6641 103.533 45.868 94.8865C41.4721 90.5651 38.1732 86.9321 35.9883 84.3992C34.896 83.133 34.0827 82.1424 33.5505 81.4791C33.2845 81.1475 33.0887 80.8977 32.9636 80.7363C32.901 80.6556 32.8561 80.597 32.8289 80.5613C32.8153 80.5435 32.8061 80.5314 32.8014 80.5251C32.799 80.5219 32.7977 80.5202 32.7975 80.52C32.7974 80.5199 32.7982 80.5208 32.7981 80.5208C32.7991 80.5221 32.8004 80.5238 28.582 83.6882ZM240.566 168.626C310.941 159.554 366.372 125.981 404.111 94.8352C422.995 79.2502 437.506 64.2277 447.308 53.0854C452.211 47.5123 455.941 42.9042 458.456 39.6744C459.713 38.0592 460.667 36.7882 461.313 35.9127C461.636 35.475 461.881 35.1361 462.049 34.9025C462.133 34.7857 462.197 34.6953 462.242 34.6319C462.265 34.6002 462.282 34.5754 462.295 34.5573C462.302 34.5483 462.307 34.541 462.311 34.5355C462.312 34.5327 462.315 34.5298 462.315 34.5285C462.317 34.526 462.319 34.524 458 31.4977C453.682 28.4713 453.682 28.4701 453.683 28.4695C453.683 28.4698 453.683 28.4695 453.682 28.4702C453.681 28.4716 453.679 28.4747 453.676 28.4795C453.669 28.4892 453.657 28.5057 453.641 28.5289C453.608 28.5754 453.556 28.6488 453.484 28.7484C453.341 28.9476 453.121 29.2516 452.824 29.6538C452.231 30.4583 451.332 31.6557 450.134 33.195C447.737 36.2739 444.141 40.7181 439.389 46.1191C429.883 56.9249 415.771 71.5376 397.398 86.7009C360.621 117.052 306.998 149.428 239.218 158.166L240.566 168.626Z" fill="#F3EFEB"/>
<path d="M4.03621 123.209L20.5199 110.596L24.2465 114.206C26.5492 116.437 27.5953 118.671 27.3849 120.907C27.1746 123.144 25.7544 125.268 23.1244 127.281C21.8177 128.28 20.4936 129.031 19.152 129.532C17.8272 130.02 16.5092 130.254 15.1981 130.233C13.9037 130.199 12.6321 129.911 11.3833 129.369C10.1513 128.814 8.97479 127.994 7.85376 126.908L4.03621 123.209ZM7.63093 123.729L9.3352 125.38C11.0773 127.068 12.9581 127.888 14.9774 127.84C17.012 127.807 19.0762 126.989 21.1701 125.387C23.2641 123.785 24.4246 122.135 24.6515 120.438C24.8937 118.755 24.1436 117.07 22.4015 115.382L20.6972 113.731L7.63093 123.729Z" fill="#F3EFEB"/>
<path d="M18.2936 136.829L29.9142 126.758L31.5521 128.153L29.6166 130.121L29.6888 130.182C30.8235 129.889 31.8871 129.795 32.8795 129.9C33.888 130.02 34.7294 130.367 35.4039 130.941C35.8695 131.338 36.2073 131.763 36.4173 132.215L34.3103 133.379C34.1814 133.16 34.0525 132.968 33.9239 132.803C33.7952 132.639 33.6104 132.454 33.3695 132.249C32.8717 131.825 32.1506 131.553 31.2061 131.433C30.2777 131.327 29.1186 131.532 27.7288 132.046L20.2687 138.511L18.2936 136.829Z" fill="#F3EFEB"/>
<path d="M30.7401 147.723C29.7148 146.945 29.1302 146.031 28.9862 144.98C28.8591 143.941 29.2952 142.938 30.2947 141.968C31.5061 140.794 33.0266 140.35 34.8559 140.639C36.7005 140.912 39.0625 141.918 41.9419 143.657C42.2902 143.319 42.5889 142.957 42.838 142.57C43.1039 142.196 43.2732 141.814 43.3457 141.424C43.4183 141.034 43.3622 140.639 43.1775 140.237C43.0247 139.833 42.6962 139.44 42.1919 139.058C41.486 138.523 40.7009 138.137 39.8368 137.9C38.9726 137.663 38.1453 137.507 37.355 137.431L37.843 135.564C38.7476 135.674 39.7632 135.895 40.8896 136.226C42.0312 136.542 43.0978 137.076 44.0895 137.828C45.5854 138.962 46.2531 140.188 46.0925 141.505C45.9471 142.808 45.1854 144.127 43.8074 145.464L37.0383 152.027L35.3239 150.727L36.4649 149.316L36.3893 149.259C35.3618 149.238 34.353 149.128 33.3626 148.926C32.3875 148.71 31.5133 148.309 30.7401 147.723ZM32.8444 146.728C33.4327 147.174 34.1085 147.477 34.8718 147.637C35.6503 147.782 36.576 147.843 37.6488 147.819L40.7153 144.846C39.5689 144.186 38.5594 143.669 37.6869 143.295C36.8312 142.934 36.0713 142.698 35.4071 142.587C34.7598 142.489 34.1838 142.51 33.6793 142.651C33.2067 142.79 32.7962 143.028 32.4479 143.366C31.8119 143.982 31.5677 144.582 31.7153 145.165C31.8629 145.748 32.2393 146.269 32.8444 146.728Z" fill="#F3EFEB"/>
<path d="M41.4673 163.828C40.6762 163.303 40.0191 162.755 39.4961 162.183C38.959 161.626 38.5734 161.058 38.3395 160.478C38.1232 159.909 38.0532 159.349 38.1294 158.799C38.2231 158.261 38.4966 157.742 38.9498 157.241C39.3889 156.757 39.9737 156.406 40.7042 156.19C41.4348 155.974 42.253 155.878 43.1589 155.904L43.2439 155.81C43.0832 155.428 43.0232 155.013 43.0637 154.564C43.136 154.112 43.3775 153.659 43.7882 153.206C44.2272 152.721 44.7591 152.398 45.3836 152.237C46.0082 152.075 46.5796 152.004 47.0977 152.022L47.1827 151.928C47.044 151.336 47.0326 150.665 47.1483 149.916C47.2958 149.163 47.6812 148.443 48.3043 147.755C48.8708 147.13 49.5037 146.649 50.203 146.312C50.9199 145.986 51.6539 145.797 52.405 145.745C53.1702 145.677 53.9279 145.741 54.678 145.938C55.4457 146.147 56.1547 146.467 56.8052 146.898C57.1568 147.131 57.4537 147.378 57.6959 147.639C57.9699 147.896 58.1945 148.145 58.3698 148.386L62.8264 151.341L61.488 152.818L58.851 151.07C58.9091 151.534 58.8507 152.033 58.6759 152.567C58.5186 153.114 58.2205 153.629 57.7814 154.114C57.2291 154.723 56.6033 155.197 55.904 155.534C55.2188 155.855 54.5095 156.048 53.776 156.112C53.0567 156.161 52.3219 156.086 51.5718 155.889C50.8393 155.704 50.1478 155.396 49.4974 154.964C49.1809 154.754 48.884 154.508 48.6067 154.224C48.3435 153.924 48.1191 153.612 47.9335 153.289C47.5492 153.31 47.1788 153.377 46.8223 153.491C46.4799 153.589 46.1672 153.795 45.8839 154.107C45.5582 154.467 45.4473 154.869 45.5513 155.313C45.6553 155.757 46.1468 156.271 47.0258 156.854L49.5046 158.497C50.9989 159.488 51.917 160.447 52.2588 161.374C52.6324 162.298 52.3872 163.236 51.5233 164.189C51.0418 164.721 50.4391 165.122 49.7154 165.393C48.9775 165.679 48.1644 165.816 47.2761 165.802C46.3878 165.789 45.4473 165.616 44.4545 165.283C43.4651 164.977 42.4694 164.492 41.4673 163.828ZM50.6658 153.675C51.035 153.919 51.4344 154.084 51.8642 154.169C52.3115 154.265 52.7644 154.278 53.223 154.207C53.6991 154.147 54.1562 154 54.5943 153.765C55.0465 153.514 55.4638 153.178 55.8462 152.756C56.6109 151.911 56.935 151.088 56.8183 150.285C56.7158 149.466 56.2865 148.806 55.5306 148.305C54.7746 147.804 53.9205 147.613 52.9682 147.732C52.0301 147.836 51.1787 148.31 50.4139 149.154C50.0315 149.576 49.7549 150.005 49.5839 150.443C49.4272 150.864 49.3656 151.274 49.3993 151.671C49.4506 152.081 49.5778 152.453 49.7809 152.788C50.0017 153.134 50.2966 153.43 50.6658 153.675ZM42.9946 162.701C43.6099 163.109 44.2274 163.406 44.8471 163.591C45.4703 163.804 46.0568 163.918 46.6066 163.932C47.1423 163.962 47.6344 163.9 48.0827 163.747C48.531 163.594 48.8897 163.369 49.1587 163.072C49.6403 162.541 49.7533 162.028 49.4979 161.533C49.2425 161.038 48.6929 160.511 47.8491 159.952L45.634 158.483C45.3879 158.32 45.1295 158.124 44.859 157.894C44.5919 157.692 44.3531 157.459 44.1426 157.194C43.4165 157.188 42.7992 157.279 42.2908 157.467C41.7824 157.656 41.3796 157.914 41.0821 158.242C40.5298 158.852 40.416 159.552 40.7407 160.343C41.083 161.146 41.8343 161.931 42.9946 162.701Z" fill="#F3EFEB"/>
<path d="M64.9585 170.318L74.1991 158.027L76.4758 159.271L67.2353 171.562L64.9585 170.318ZM77.2666 156.136C76.8223 155.893 76.5379 155.559 76.4134 155.134C76.3073 154.719 76.4001 154.318 76.6916 153.93C76.9958 153.526 77.3848 153.286 77.8584 153.212C78.3632 153.131 78.8377 153.212 79.282 153.455C79.7262 153.698 80.0014 154.026 80.1074 154.441C80.2446 154.849 80.1611 155.255 79.8569 155.66C79.5654 156.048 79.1672 156.282 78.6624 156.363C78.1761 156.454 77.7108 156.378 77.2666 156.136Z" fill="#F3EFEB"/>
<path d="M74.6124 175.713L83.1246 162.907L85.0637 163.839L84.0373 165.779L84.1228 165.821C85.1969 165.526 86.2294 165.35 87.2204 165.293C88.242 165.228 89.2376 165.428 90.2072 165.894C91.671 166.598 92.4554 167.531 92.5603 168.694C92.6842 169.867 92.1974 171.278 91.0998 172.93L85.7052 181.045L83.3669 179.921L88.5688 172.095C89.3745 170.883 89.7433 169.913 89.6754 169.185C89.6191 168.44 89.1347 167.847 88.2222 167.409C87.4998 167.061 86.752 166.922 85.9788 166.991C85.2057 167.06 84.2514 167.25 83.1159 167.562L76.9507 176.837L74.6124 175.713Z" fill="#F3EFEB"/>
<path d="M96.4096 186.215C95.6495 185.9 95.0696 185.524 94.6698 185.087C94.2894 184.658 94.0442 184.183 93.934 183.662C93.8434 183.149 93.8878 182.59 94.0673 181.985C94.2468 181.38 94.526 180.749 94.9051 180.091L99.1542 172.716L97.0494 171.845L98.0287 170.145L100.329 170.928L102.77 167.32L104.787 168.156L102.639 171.884L106.468 173.47L105.41 175.307L101.58 173.721L97.3156 181.123C96.8418 181.946 96.6291 182.65 96.6777 183.236C96.7562 183.812 97.2048 184.269 98.0233 184.608C98.2766 184.713 98.5705 184.789 98.905 184.837C99.2394 184.885 99.5499 184.912 99.8364 184.918L99.3248 186.811C98.8613 186.778 98.3694 186.71 97.849 186.607C97.3376 186.531 96.8578 186.401 96.4096 186.215Z" fill="#F3EFEB"/>
<path d="M110.311 191.684C109.415 191.37 108.639 190.908 107.981 190.3C107.344 189.698 106.866 188.986 106.547 188.164C106.238 187.323 106.113 186.391 106.173 185.369C106.262 184.335 106.587 183.25 107.146 182.115C107.714 180.96 108.397 180.001 109.193 179.238C110.018 178.463 110.893 177.871 111.818 177.463C112.742 177.056 113.682 176.831 114.636 176.789C115.611 176.754 116.546 176.894 117.441 177.209C118.337 177.523 119.103 177.982 119.741 178.583C120.398 179.191 120.882 179.916 121.191 180.757C121.5 181.599 121.61 182.536 121.521 183.571C121.461 184.593 121.147 185.681 120.578 186.835C120.019 187.971 119.327 188.926 118.501 189.701C117.705 190.465 116.845 191.05 115.92 191.458C115.005 191.847 114.06 192.059 113.086 192.093C112.131 192.135 111.206 191.999 110.311 191.684ZM111.262 189.754C111.879 189.971 112.506 190.047 113.145 189.983C113.793 189.9 114.408 189.694 114.99 189.366C115.601 189.026 116.164 188.569 116.68 187.996C117.196 187.422 117.65 186.738 118.041 185.944C118.433 185.149 118.687 184.395 118.805 183.682C118.932 182.949 118.923 182.28 118.778 181.674C118.653 181.075 118.392 180.562 117.996 180.134C117.609 179.687 117.107 179.356 116.49 179.139C115.874 178.922 115.241 178.855 114.593 178.938C113.955 179.002 113.33 179.205 112.719 179.545C112.128 179.892 111.569 180.362 111.044 180.954C110.528 181.527 110.074 182.211 109.683 183.006C109.292 183.801 109.037 184.555 108.919 185.268C108.801 185.982 108.805 186.638 108.93 187.237C109.084 187.824 109.355 188.341 109.742 188.787C110.138 189.215 110.645 189.537 111.262 189.754Z" fill="#F3EFEB"/>
<path d="M131.391 204.94L138.65 184.317L140.739 184.832L140.366 186.556L140.458 186.579C141.33 186.189 142.236 185.893 143.174 185.692C144.134 185.495 145.054 185.506 145.934 185.723C146.897 185.96 147.684 186.348 148.295 186.888C148.913 187.408 149.353 188.057 149.613 188.835C149.881 189.592 149.976 190.459 149.9 191.435C149.851 192.396 149.627 193.443 149.228 194.578C148.793 195.811 148.231 196.873 147.539 197.762C146.855 198.631 146.097 199.331 145.265 199.861C144.433 200.391 143.564 200.739 142.66 200.906C141.763 201.052 140.884 201.019 140.024 200.808C139.327 200.636 138.684 200.315 138.092 199.845C137.521 199.38 136.979 198.803 136.465 198.114L135.633 200.666L133.91 205.561L131.391 204.94ZM140.319 198.642C140.933 198.794 141.542 198.803 142.145 198.671C142.775 198.523 143.359 198.256 143.896 197.869C144.46 197.468 144.971 196.934 145.427 196.268C145.905 195.608 146.301 194.83 146.616 193.934C146.896 193.138 147.08 192.394 147.168 191.703C147.256 191.011 147.216 190.396 147.05 189.857C146.911 189.304 146.631 188.835 146.21 188.45C145.809 188.07 145.261 187.795 144.564 187.623C143.93 187.467 143.225 187.477 142.45 187.654C141.696 187.836 140.839 188.154 139.877 188.609L137.198 196.22C137.678 196.943 138.194 197.503 138.744 197.898C139.302 198.273 139.827 198.521 140.319 198.642Z" fill="#F3EFEB"/>
<path d="M155.517 204.311C154.544 204.122 153.93 203.703 153.676 203.055C153.421 202.406 153.449 201.533 153.757 200.437L159.018 181.736L161.565 182.229L156.253 201.113C156.138 201.519 156.131 201.817 156.23 202.008C156.33 202.198 156.472 202.312 156.659 202.348C156.742 202.364 156.814 202.378 156.876 202.39C156.959 202.406 157.079 202.408 157.235 202.395L157.045 204.35C156.857 204.399 156.643 204.422 156.404 204.418C156.165 204.415 155.869 204.379 155.517 204.311Z" fill="#F3EFEB"/>
<path d="M168.523 206.638C167.25 206.453 166.265 205.928 165.57 205.061C164.895 204.198 164.705 203.085 164.999 201.725C165.356 200.075 166.369 198.925 168.038 198.275C169.712 197.603 172.214 197.329 175.547 197.451C175.649 196.977 175.697 196.506 175.691 196.037C175.705 195.571 175.636 195.146 175.482 194.763C175.328 194.379 175.065 194.053 174.692 193.787C174.344 193.502 173.857 193.315 173.231 193.224C172.354 193.096 171.494 193.141 170.65 193.359C169.807 193.577 169.038 193.848 168.343 194.172L167.722 192.264C168.53 191.914 169.49 191.606 170.602 191.343C171.718 191.058 172.892 191.005 174.124 191.184C175.982 191.454 177.206 192.217 177.795 193.472C178.39 194.706 178.484 196.262 178.079 198.138L176.087 207.354L173.957 207.045L174.126 205.219L174.032 205.206C173.172 205.697 172.278 206.099 171.349 206.411C170.425 206.702 169.483 206.778 168.523 206.638ZM169.716 204.706C170.446 204.812 171.171 204.747 171.889 204.512C172.612 204.255 173.41 203.85 174.283 203.296L175.186 199.121C173.877 199.101 172.759 199.141 171.834 199.241C170.929 199.343 170.171 199.509 169.562 199.74C168.973 199.973 168.509 200.278 168.169 200.654C167.855 201.012 167.647 201.429 167.544 201.903C167.357 202.769 167.484 203.425 167.926 203.872C168.368 204.319 168.964 204.597 169.716 204.706Z" fill="#F3EFEB"/>
<path d="M189.402 209.178C188.394 209.087 187.473 208.825 186.641 208.391C185.809 207.956 185.114 207.376 184.557 206.649C184.024 205.904 183.638 205.023 183.399 204.007C183.183 202.973 183.164 201.829 183.341 200.576C183.521 199.302 183.88 198.192 184.418 197.246C184.958 196.279 185.614 195.481 186.383 194.852C187.153 194.223 188.004 193.771 188.937 193.495C189.89 193.221 190.861 193.128 191.848 193.217C192.856 193.307 193.693 193.562 194.357 193.981C195.021 194.4 195.592 194.874 196.071 195.404L194.508 196.977C194.123 196.54 193.696 196.174 193.227 195.878C192.779 195.584 192.251 195.41 191.642 195.356C190.948 195.293 190.287 195.382 189.657 195.622C189.031 195.841 188.47 196.192 187.977 196.677C187.483 197.161 187.058 197.758 186.703 198.466C186.371 199.155 186.144 199.939 186.02 200.816C185.896 201.693 185.899 202.497 186.03 203.228C186.161 203.959 186.389 204.603 186.714 205.161C187.064 205.7 187.512 206.142 188.059 206.487C188.609 206.812 189.23 207.005 189.924 207.067C190.638 207.131 191.31 207.043 191.939 206.804C192.593 206.545 193.191 206.228 193.733 205.854L194.624 207.679C193.845 208.222 193.01 208.634 192.12 208.914C191.232 209.172 190.326 209.26 189.402 209.178Z" fill="#F3EFEB"/>
<path d="M207.254 210.265C206.221 210.229 205.263 210.016 204.381 209.626C203.521 209.217 202.776 208.663 202.147 207.966C201.541 207.249 201.081 206.389 200.768 205.387C200.455 204.384 200.341 203.252 200.426 201.989C200.511 200.726 200.777 199.607 201.223 198.631C201.691 197.635 202.265 196.801 202.944 196.128C203.645 195.456 204.418 194.956 205.264 194.627C206.112 194.277 206.978 194.117 207.864 194.148C208.833 194.182 209.686 194.381 210.423 194.744C211.18 195.108 211.79 195.614 212.254 196.263C212.738 196.913 213.088 197.685 213.302 198.578C213.517 199.472 213.587 200.466 213.513 201.56C213.495 201.834 213.466 202.107 213.427 202.38C213.41 202.632 213.374 202.853 213.319 203.041L202.947 202.678C202.942 204.324 203.36 205.646 204.201 206.646C205.065 207.625 206.235 208.141 207.71 208.192C208.448 208.218 209.13 208.136 209.755 207.947C210.403 207.738 211.024 207.464 211.617 207.126L212.419 208.863C211.717 209.26 210.943 209.603 210.1 209.89C209.257 210.176 208.308 210.302 207.254 210.265ZM203.041 200.815L211.262 201.102C211.367 199.544 211.109 198.354 210.489 197.531C209.89 196.687 208.99 196.244 207.789 196.202C207.241 196.183 206.707 196.27 206.187 196.463C205.687 196.656 205.224 196.957 204.795 197.364C204.367 197.749 203.997 198.232 203.683 198.812C203.39 199.392 203.176 200.06 203.041 200.815Z" fill="#F3EFEB"/>
<path d="M235.063 209.98C234.241 210.018 233.54 209.923 232.961 209.696C232.402 209.469 231.934 209.142 231.558 208.715C231.202 208.288 230.937 207.762 230.763 207.137C230.589 206.511 230.486 205.819 230.454 205.06L230.096 196.557L227.82 196.661L227.737 194.701L230.133 194.433L230.268 190.119L232.449 190.019L232.63 194.318L236.77 194.128L236.859 196.246L232.719 196.436L233.078 204.972C233.118 205.92 233.318 206.65 233.677 207.161C234.057 207.651 234.689 207.875 235.574 207.834C235.848 207.822 236.141 207.766 236.454 207.667C236.766 207.568 237.047 207.461 237.295 207.344L237.883 209.28C237.468 209.447 237.01 209.595 236.509 209.724C236.029 209.872 235.547 209.958 235.063 209.98Z" fill="#F3EFEB"/>
<path d="M250.516 208.763C249.571 208.856 248.648 208.766 247.747 208.494C246.868 208.219 246.064 207.779 245.338 207.172C244.61 206.543 243.99 205.756 243.481 204.81C242.99 203.841 242.673 202.728 242.532 201.47C242.388 200.191 242.449 199.041 242.716 198.019C243.002 196.974 243.431 196.073 244.004 195.318C244.577 194.563 245.263 193.966 246.063 193.527C246.884 193.087 247.766 192.821 248.711 192.728C249.656 192.636 250.568 192.727 251.448 193.001C252.349 193.273 253.163 193.723 253.892 194.351C254.621 194.98 255.231 195.778 255.722 196.747C256.231 197.694 256.558 198.806 256.702 200.085C256.844 201.342 256.772 202.494 256.486 203.539C256.219 204.561 255.799 205.45 255.226 206.205C254.651 206.939 253.953 207.527 253.132 207.967C252.333 208.406 251.46 208.671 250.516 208.763ZM250.275 206.625C250.926 206.562 251.509 206.367 252.024 206.041C252.537 205.694 252.954 205.251 253.275 204.711C253.615 204.148 253.85 203.5 253.98 202.767C254.109 202.033 254.125 201.227 254.025 200.346C253.926 199.466 253.732 198.68 253.442 197.987C253.149 197.274 252.774 196.675 252.316 196.19C251.879 195.703 251.373 195.35 250.796 195.131C250.217 194.891 249.602 194.803 248.952 194.866C248.301 194.93 247.719 195.135 247.206 195.482C246.691 195.808 246.264 196.252 245.924 196.815C245.605 197.376 245.382 198.034 245.254 198.788C245.125 199.521 245.109 200.328 245.208 201.208C245.307 202.089 245.502 202.875 245.792 203.567C246.082 204.259 246.446 204.849 246.883 205.336C247.338 205.8 247.855 206.152 248.434 206.392C249.011 206.611 249.624 206.689 250.275 206.625Z" fill="#F3EFEB"/>
<path d="M279.232 204.5C278.153 204.701 277.081 204.698 276.016 204.49C274.95 204.282 273.984 203.949 273.119 203.489L273.997 201.556C274.786 201.966 275.561 202.271 276.322 202.471C277.104 202.668 277.951 202.681 278.863 202.51C279.858 202.324 280.552 201.959 280.943 201.414C281.335 200.869 281.454 200.268 281.3 199.61C281.209 199.22 281.026 198.901 280.751 198.652C280.476 198.403 280.149 198.207 279.769 198.064C279.405 197.896 278.997 197.769 278.544 197.682C278.091 197.596 277.637 197.509 277.184 197.422C276.602 197.338 276.015 197.234 275.423 197.109C274.826 196.963 274.271 196.767 273.759 196.52C273.263 196.248 272.827 195.912 272.451 195.51C272.076 195.109 271.814 194.59 271.665 193.953C271.525 193.358 271.509 192.782 271.617 192.226C271.741 191.645 271.977 191.129 272.326 190.678C272.691 190.203 273.17 189.802 273.765 189.476C274.355 189.13 275.054 188.881 275.862 188.73C276.816 188.552 277.726 188.553 278.59 188.734C279.476 188.911 280.264 189.182 280.955 189.546L280.118 191.375C279.508 191.081 278.894 190.864 278.277 190.722C277.659 190.581 277.019 190.572 276.355 190.696C275.402 190.874 274.747 191.222 274.392 191.739C274.058 192.251 273.958 192.795 274.093 193.37C274.174 193.719 274.34 194.01 274.589 194.242C274.833 194.454 275.135 194.633 275.494 194.78C275.848 194.907 276.242 195.015 276.674 195.106C277.123 195.172 277.584 195.247 278.058 195.33C278.645 195.434 279.234 195.549 279.826 195.674C280.439 195.795 281.004 195.989 281.521 196.257C282.033 196.504 282.482 196.849 282.867 197.291C283.273 197.73 283.558 198.298 283.721 198.997C283.865 199.613 283.876 200.211 283.752 200.792C283.649 201.368 283.407 201.907 283.026 202.407C282.667 202.903 282.161 203.33 281.509 203.688C280.882 204.062 280.123 204.333 279.232 204.5Z" fill="#F3EFEB"/>
<path d="M296.395 200.684C295.594 200.873 294.88 200.911 294.253 200.8C293.647 200.683 293.105 200.454 292.628 200.112C292.172 199.766 291.781 199.306 291.455 198.734C291.129 198.162 290.857 197.512 290.638 196.785L288.186 188.635L285.969 189.158L285.404 187.279L287.699 186.576L286.767 182.383L288.892 181.881L290.131 186.002L294.166 185.05L294.776 187.08L290.742 188.032L293.203 196.213C293.477 197.122 293.853 197.79 294.334 198.217C294.829 198.62 295.507 198.719 296.37 198.516C296.636 198.453 296.912 198.345 297.195 198.191C297.479 198.038 297.729 197.881 297.945 197.722L299.003 199.485C298.634 199.723 298.219 199.951 297.757 200.168C297.321 200.4 296.867 200.572 296.395 200.684Z" fill="#F3EFEB"/>
<path d="M308.838 197.221C307.602 197.578 306.436 197.521 305.339 197.049C304.263 196.572 303.482 195.682 302.995 194.377C302.404 192.797 302.674 191.383 303.802 190.138C304.924 188.872 307.002 187.615 310.038 186.365C309.869 185.911 309.652 185.481 309.388 185.076C309.145 184.664 308.849 184.323 308.501 184.051C308.152 183.78 307.738 183.604 307.259 183.523C306.793 183.417 306.256 183.452 305.648 183.628C304.797 183.874 304.056 184.263 303.424 184.796C302.792 185.329 302.256 185.877 301.816 186.442L300.213 185.034C300.739 184.4 301.425 183.742 302.271 183.06C303.109 182.358 304.126 181.835 305.321 181.489C307.125 180.968 308.635 181.134 309.851 181.986C311.06 182.819 312 184.135 312.672 185.933L315.97 194.766L313.903 195.363L313.049 193.705L312.957 193.732C312.462 194.51 311.887 195.223 311.231 195.872C310.568 196.502 309.771 196.951 308.838 197.221ZM308.837 195.054C309.547 194.849 310.156 194.497 310.666 194C311.169 193.482 311.657 192.805 312.13 191.968L310.636 187.966C309.459 188.481 308.485 188.971 307.715 189.434C306.966 189.891 306.383 190.344 305.967 190.793C305.571 191.236 305.325 191.69 305.229 192.155C305.147 192.595 305.19 193.042 305.36 193.497C305.67 194.327 306.144 194.847 306.784 195.056C307.423 195.265 308.108 195.264 308.837 195.054Z" fill="#F3EFEB"/>
<path d="M322.77 192.312L316.473 178.283L318.507 177.584L319.857 180.052L319.947 180.021C320.048 178.964 320.331 178.056 320.796 177.296C321.281 176.53 321.942 176.002 322.78 175.714C323.358 175.515 323.92 175.433 324.465 175.468L324.92 177.71C324.646 177.716 324.4 177.734 324.184 177.764C323.967 177.794 323.709 177.86 323.41 177.963C322.791 178.176 322.251 178.64 321.789 179.354C321.347 180.061 321.144 181.097 321.181 182.462L325.223 191.468L322.77 192.312Z" fill="#F3EFEB"/>
<path d="M340.52 185.977C339.755 186.279 339.049 186.421 338.403 186.405C337.776 186.381 337.194 186.238 336.657 185.975C336.14 185.706 335.667 185.317 335.239 184.809C334.811 184.3 334.423 183.709 334.074 183.035L330.165 175.474L328.045 176.308L327.144 174.566L329.309 173.545L327.628 169.606L329.659 168.807L331.635 172.629L335.492 171.111L336.466 172.995L332.609 174.512L336.532 182.101C336.968 182.944 337.464 183.538 338.02 183.883C338.586 184.201 339.282 184.198 340.106 183.874C340.361 183.774 340.617 183.628 340.872 183.437C341.128 183.246 341.349 183.058 341.536 182.871L342.908 184.429C342.584 184.714 342.21 184.997 341.787 185.276C341.394 185.566 340.972 185.8 340.52 185.977Z" fill="#F3EFEB"/>
<path d="M362.531 175.718C361.791 176.077 361.096 176.275 360.447 176.311C359.817 176.338 359.22 176.244 358.658 176.028C358.114 175.803 357.605 175.457 357.129 174.989C356.654 174.522 356.211 173.969 355.799 173.331L351.19 166.176L349.141 167.171L348.079 165.522L350.156 164.338L348.111 160.582L350.074 159.628L352.405 163.246L356.133 161.435L357.281 163.217L353.553 165.028L358.179 172.21C358.693 173.008 359.244 173.555 359.833 173.851C360.43 174.119 361.127 174.06 361.924 173.673C362.17 173.553 362.413 173.389 362.652 173.18C362.891 172.97 363.096 172.766 363.266 172.567L364.784 173.995C364.484 174.303 364.136 174.613 363.737 174.922C363.369 175.241 362.967 175.506 362.531 175.718Z" fill="#F3EFEB"/>
<path d="M370.233 171.064L356.829 152.958L359.097 151.698L362.749 156.631L364.549 159.221C364.78 158.303 365.102 157.454 365.514 156.675C365.914 155.879 366.584 155.22 367.524 154.698C368.944 153.909 370.278 153.743 371.526 154.198C372.792 154.643 374.015 155.662 375.195 157.256L380.993 165.089L378.725 166.348L373.133 158.795C372.268 157.626 371.443 156.899 370.661 156.616C369.867 156.315 369.027 156.411 368.141 156.903C367.441 157.292 366.942 157.796 366.646 158.415C366.349 159.034 366.092 159.847 365.874 160.853L372.501 169.804L370.233 171.064Z" fill="#F3EFEB"/>
<path d="M392.501 157.948C391.631 158.506 390.697 158.893 389.699 159.11C388.706 159.3 387.705 159.32 386.697 159.172C385.693 158.997 384.709 158.635 383.743 158.087C382.778 157.54 381.883 156.786 381.059 155.826C380.234 154.865 379.659 153.906 379.333 152.949C379.012 151.965 378.89 151.038 378.97 150.168C379.067 149.288 379.346 148.489 379.805 147.774C380.25 147.042 380.846 146.437 381.592 145.959C382.409 145.436 383.247 145.098 384.107 144.944C384.984 144.78 385.841 144.801 386.68 145.008C387.536 145.204 388.368 145.564 389.176 146.088C389.984 146.613 390.745 147.291 391.459 148.123C391.638 148.331 391.808 148.545 391.969 148.765C392.133 148.957 392.26 149.136 392.348 149.303L383.608 154.9C384.769 156.091 386.047 156.811 387.443 157.058C388.842 157.278 390.164 156.989 391.407 156.193C392.029 155.795 392.529 155.351 392.907 154.861C393.288 154.344 393.602 153.795 393.848 153.216L395.734 154.018C395.44 154.702 395.05 155.386 394.563 156.07C394.077 156.753 393.389 157.38 392.501 157.948ZM382.366 153.5L389.294 149.064C388.277 147.879 387.224 147.165 386.133 146.921C385.047 146.649 383.997 146.837 382.985 147.486C382.523 147.782 382.148 148.146 381.859 148.579C381.587 149.001 381.42 149.48 381.358 150.016C381.281 150.536 381.32 151.094 381.474 151.69C381.645 152.275 381.943 152.878 382.366 153.5Z" fill="#F3EFEB"/>
<path d="M412.981 142.703C412.116 143.378 411.148 143.882 410.075 144.216C409.003 144.55 407.954 144.734 406.929 144.767L406.689 142.771C407.619 142.733 408.481 142.616 409.274 142.42C410.084 142.211 410.855 141.821 411.587 141.25C412.385 140.627 412.815 140 412.878 139.37C412.94 138.739 412.727 138.191 412.237 137.726C411.946 137.45 411.611 137.275 411.23 137.202C410.85 137.128 410.45 137.123 410.031 137.185C409.613 137.22 409.177 137.309 408.722 137.453C408.267 137.596 407.812 137.74 407.357 137.883C406.787 138.09 406.202 138.282 405.601 138.46C404.985 138.623 404.38 138.725 403.787 138.765C403.194 138.777 402.621 138.708 402.068 138.558C401.516 138.407 401.002 138.106 400.528 137.656C400.084 137.235 399.763 136.772 399.563 136.266C399.365 135.733 399.303 135.199 399.376 134.665C399.452 134.104 399.67 133.549 400.033 133.002C400.38 132.44 400.878 131.905 401.526 131.399C402.291 130.802 403.112 130.373 403.989 130.112C404.882 129.839 405.737 129.687 406.555 129.658L406.775 131.55C406.069 131.598 405.399 131.71 404.767 131.887C404.134 132.063 403.552 132.359 403.02 132.774C402.255 133.371 401.85 133.965 401.806 134.555C401.778 135.133 401.978 135.625 402.407 136.031C402.667 136.278 402.971 136.438 403.319 136.509C403.653 136.567 404.021 136.571 404.423 136.521C404.81 136.457 405.223 136.36 405.661 136.23C406.101 136.072 406.556 135.915 407.028 135.758C407.613 135.566 408.206 135.381 408.807 135.204C409.424 135.013 410.037 134.905 410.647 134.879C411.241 134.839 411.829 134.909 412.413 135.088C413.012 135.255 413.573 135.585 414.093 136.079C414.552 136.515 414.88 136.999 415.079 137.533C415.293 138.053 415.363 138.608 415.286 139.196C415.226 139.772 414.998 140.361 414.601 140.962C414.236 141.564 413.696 142.145 412.981 142.703Z" fill="#F3EFEB"/>
<path d="M425.543 131.895C424.922 132.434 424.299 132.808 423.677 133.018C423.07 133.213 422.462 133.285 421.854 133.233C421.261 133.167 420.668 132.978 420.075 132.665C419.481 132.352 418.895 131.949 418.317 131.457L411.833 125.943L410.113 127.437L408.618 126.166L410.314 124.487L407.275 121.492L408.923 120.061L412.201 122.849L415.332 120.132L416.947 121.505L413.816 124.222L420.324 129.756C421.047 130.371 421.737 130.739 422.394 130.859C423.05 130.952 423.713 130.708 424.382 130.127C424.589 129.948 424.78 129.727 424.955 129.465C425.129 129.203 425.272 128.955 425.383 128.72L427.26 129.659C427.053 130.032 426.799 130.418 426.497 130.818C426.227 131.218 425.909 131.577 425.543 131.895Z" fill="#F3EFEB"/>
<path d="M435.868 121.821C435.189 122.485 434.397 123.011 433.492 123.4C432.602 123.774 431.654 123.986 430.646 124.038C429.622 124.076 428.571 123.938 427.492 123.622C426.411 123.278 425.365 122.726 424.354 121.966C423.326 121.192 422.551 120.375 422.031 119.513C421.508 118.625 421.203 117.743 421.114 116.867C421.026 115.992 421.14 115.151 421.457 114.346C421.789 113.526 422.294 112.784 422.973 112.121C423.652 111.458 424.436 110.939 425.326 110.565C426.231 110.176 427.196 109.962 428.22 109.924C429.244 109.885 430.296 110.038 431.377 110.381C432.456 110.697 433.509 111.241 434.538 112.015C435.549 112.776 436.316 113.601 436.838 114.489C437.359 115.351 437.664 116.219 437.752 117.094C437.824 117.957 437.694 118.799 437.362 119.618C437.045 120.424 436.547 121.158 435.868 121.821ZM434.149 120.528C434.617 120.071 434.937 119.568 435.11 119.02C435.266 118.46 435.278 117.894 435.145 117.325C435.01 116.728 434.732 116.14 434.309 115.561C433.887 114.983 433.322 114.427 432.614 113.894C431.906 113.362 431.19 112.954 430.466 112.67C429.725 112.374 429.001 112.207 428.293 112.17C427.6 112.118 426.948 112.202 426.336 112.42C425.708 112.626 425.16 112.957 424.692 113.414C424.225 113.871 423.913 114.38 423.756 114.941C423.583 115.489 423.564 116.062 423.699 116.659C423.849 117.241 424.143 117.828 424.582 118.419C425.005 118.998 425.57 119.553 426.278 120.086C426.986 120.619 427.702 121.027 428.426 121.31C429.15 121.594 429.858 121.762 430.551 121.813C431.242 121.838 431.902 121.747 432.53 121.541C433.142 121.323 433.681 120.985 434.149 120.528Z" fill="#F3EFEB"/>
<path d="M444.155 112.298L431.345 103.791L432.791 102.198L435.259 103.574L435.323 103.504C434.869 102.577 434.653 101.682 434.675 100.82C434.711 99.9428 435.026 99.176 435.622 98.52C436.033 98.0669 436.489 97.7191 436.991 97.4765L438.548 99.1117C438.308 99.2525 438.099 99.3893 437.922 99.5222C437.745 99.6551 437.551 99.8387 437.338 100.073C436.899 100.557 436.658 101.211 436.615 102.034C436.587 102.841 436.94 103.801 437.675 104.915L445.899 110.377L444.155 112.298Z" fill="#F3EFEB"/>
<path d="M458.358 105.562C458.133 105.84 457.9 106.079 457.659 106.276C457.437 106.484 457.201 106.66 456.951 106.803L455.498 105.365C455.641 105.255 455.796 105.129 455.965 104.986C456.153 104.854 456.306 104.715 456.425 104.567C456.983 103.878 457.161 103.16 456.961 102.412C456.793 101.659 456.399 100.918 455.781 100.19L455.019 99.3407L437.865 96.3081L439.557 94.2176L448.859 96.1069C449.586 96.2695 450.356 96.4453 451.17 96.6343C451.978 96.7963 452.764 96.9692 453.528 97.1532L453.607 97.0549C453.154 96.5209 452.666 95.979 452.145 95.4292C451.624 94.8795 451.139 94.3511 450.69 93.8442L445.091 87.3804L446.683 85.4129L457.375 98.369C457.857 98.9679 458.273 99.5647 458.624 100.159C458.975 100.754 459.204 101.349 459.312 101.946C459.438 102.553 459.433 103.156 459.298 103.754C459.162 104.353 458.849 104.955 458.358 105.562Z" fill="#F3EFEB"/>
</svg>
