<svg width="451" height="109" viewBox="0 0 451 109" fill="none" xmlns="http://www.w3.org/2000/svg">
<mask id="path-1-inside-1" fill="white">
<path fill-rule="evenodd" clip-rule="evenodd" d="M398 0H57V25.4353C51.0692 21.0865 43.751 18.5184 35.8331 18.5184C16.043 18.5184 0 34.5614 0 54.3514C0 74.1415 16.043 90.1845 35.8331 90.1845C43.751 90.1845 51.0692 87.6163 57 83.2676V109H398V85.4743C403.019 88.1497 408.749 89.6661 414.833 89.6661C434.623 89.6661 450.666 73.6231 450.666 53.8331C450.666 34.043 434.623 18 414.833 18C408.749 18 403.019 19.5164 398 22.1919V0Z"/>
</mask>
<path fill-rule="evenodd" clip-rule="evenodd" d="M398 0H57V25.4353C51.0692 21.0865 43.751 18.5184 35.8331 18.5184C16.043 18.5184 0 34.5614 0 54.3514C0 74.1415 16.043 90.1845 35.8331 90.1845C43.751 90.1845 51.0692 87.6163 57 83.2676V109H398V85.4743C403.019 88.1497 408.749 89.6661 414.833 89.6661C434.623 89.6661 450.666 73.6231 450.666 53.8331C450.666 34.043 434.623 18 414.833 18C408.749 18 403.019 19.5164 398 22.1919V0Z" fill="#B47597"/>
<path d="M57 0V-7.29633H49.7037V0H57ZM398 0H405.296V-7.29633H398V0ZM57 25.4353L52.6855 31.3193L64.2963 39.833V25.4353H57ZM57 83.2676H64.2963V68.8699L52.6855 77.3836L57 83.2676ZM57 109H49.7037V116.296H57V109ZM398 109V116.296H405.296V109H398ZM398 85.4743L401.432 79.0357L390.704 73.3161V85.4743H398ZM398 22.1919H390.704V34.35L401.432 28.6304L398 22.1919ZM57 7.29633H398V-7.29633H57V7.29633ZM64.2963 25.4353V0H49.7037V25.4353H64.2963ZM61.3145 19.5513C54.1746 14.316 45.3545 11.222 35.8331 11.222V25.8147C42.1476 25.8147 47.9638 27.8571 52.6855 31.3193L61.3145 19.5513ZM35.8331 11.222C12.0134 11.222 -7.29633 30.5317 -7.29633 54.3514H7.29633C7.29633 38.591 20.0727 25.8147 35.8331 25.8147V11.222ZM-7.29633 54.3514C-7.29633 78.1711 12.0134 97.4808 35.8331 97.4808V82.8882C20.0727 82.8882 7.29633 70.1118 7.29633 54.3514H-7.29633ZM35.8331 97.4808C45.3545 97.4808 54.1746 94.3869 61.3145 89.1516L52.6855 77.3836C47.9638 80.8458 42.1476 82.8882 35.8331 82.8882V97.4808ZM64.2963 109V83.2676H49.7037V109H64.2963ZM398 101.704H57V116.296H398V101.704ZM390.704 85.4743V109H405.296V85.4743H390.704ZM394.568 91.9128C400.617 95.1377 407.523 96.9625 414.833 96.9625V82.3698C409.975 82.3698 405.42 81.1618 401.432 79.0357L394.568 91.9128ZM414.833 96.9625C438.653 96.9625 457.962 77.6528 457.962 53.8331H443.37C443.37 69.5935 430.593 82.3698 414.833 82.3698V96.9625ZM457.962 53.8331C457.962 30.0134 438.653 10.7037 414.833 10.7037V25.2963C430.593 25.2963 443.37 38.0727 443.37 53.8331H457.962ZM414.833 10.7037C407.523 10.7037 400.617 12.5284 394.568 15.7533L401.432 28.6304C405.42 26.5044 409.975 25.2963 414.833 25.2963V10.7037ZM390.704 0V22.1919H405.296V0H390.704Z" fill="#721545" mask="url(#path-1-inside-1)"/>
</svg>
