<svg width="249" height="243" viewBox="0 0 249 243" fill="none" xmlns="http://www.w3.org/2000/svg">
<path d="M63.5848 40.8193C60.2591 49.1335 61.9219 44.9764 59.4277 53.2905C56.9334 61.6047 6.21711 175.509 6.21711 175.509C6.21711 175.509 1.22862 183.823 6.21711 187.98C11.2056 192.137 28.6653 195.463 28.6653 195.463C28.6653 195.463 39.4737 197.957 46.125 195.463C52.7764 192.968 100.167 116.478 100.167 116.478L127.604 223.731C127.604 223.731 132.592 237.865 170.006 239.528C207.42 241.19 244.833 170.52 244.833 170.52L212.408 96.5241C212.408 96.5241 201.6 75.7388 199.937 72.4131C198.274 69.0874 198.274 50.7963 193.286 45.8078C188.297 40.8193 188.297 39.1565 177.489 36.6622C166.68 34.168 157.535 36.6622 157.535 36.6622C157.535 36.6622 130.098 24.191 123.447 22.5282C116.795 20.8653 105.156 20.0339 92.6843 22.5282C80.2131 25.0224 66.9104 32.5052 63.5848 40.8193Z" fill="#F3EFEB"/>
<path d="M86.0332 25.5468L60.2593 53.8149L66.9106 33.8609L86.0332 25.5468Z" fill="#FFB566"/>
<path d="M96.0101 33.8609L111.807 23.0525L113.47 20.5583L158.366 35.5237H173.332L192.454 44.6693L199.937 68.7803L214.903 100.374L214.071 112.014L211.577 117.002L204.094 119.497V132.799L199.937 140.282L189.96 143.608L179.983 141.945L167.512 133.631L158.366 123.654L154.209 109.52H121.784L111.807 98.7113H100.999H84.3703L77.719 87.0715V83.7458L84.3703 76.2631L96.0101 33.8609Z" fill="#FFB566"/>
<path d="M63.5848 40.5122C60.2591 48.8264 61.9219 44.6693 59.4277 52.9835C56.9334 61.2976 6.21711 175.202 6.21711 175.202C6.21711 175.202 1.22862 183.516 6.21711 187.673C11.2056 191.83 28.6653 195.156 28.6653 195.156C28.6653 195.156 39.4737 197.65 46.125 195.156C52.7764 192.661 100.167 116.171 100.167 116.171L127.604 223.424C127.604 223.424 132.592 237.558 170.006 239.221C207.42 240.883 244.833 170.213 244.833 170.213L212.408 96.2171C212.408 96.2171 201.6 75.4317 199.937 72.106C198.274 68.7804 198.274 50.4892 193.286 45.5007C188.297 40.5122 188.297 38.8494 177.489 36.3552C166.68 33.8609 157.535 36.3552 157.535 36.3552C157.535 36.3552 130.098 23.8839 123.447 22.2211C116.795 20.5583 105.156 19.7269 92.6843 22.2211C80.2131 24.7154 66.9104 32.1981 63.5848 40.5122Z" stroke="black" stroke-width="6.65132" stroke-linejoin="round"/>
<ellipse cx="23.677" cy="181.021" rx="17.4597" ry="10.8084" fill="black"/>
<path d="M68.4645 120.724L40.6184 196.1L48.0256 195.04L68.4645 120.724Z" fill="black"/>
<path d="M198.765 65.0748C197.435 68.2826 196.155 72.5842 192.007 72.5842C189.915 72.5842 187.413 69.5804 190.171 69.5804C193.541 69.5804 195.165 69.1492 197.43 71.6664C199.791 74.2893 201.713 77.086 203.646 80.0936C209.658 89.4442 214.377 101.123 213.784 112.384C213.417 119.367 203.27 120.124 198.765 117.474C196.073 115.89 191.81 111.328 190.088 108.796C187.287 104.678 194.532 105.883 196.137 106.377C200.239 107.639 202.01 109.409 202.687 113.302C203.909 120.326 206.613 134.496 200.225 140.085C196.453 143.387 185.353 144.519 180.951 142.255C168.442 135.822 159.898 128.843 155.378 115.388C153.314 109.247 153.421 103.336 152.916 97.0315C152.566 92.6513 151.456 88.4518 151.456 84.0152C151.456 77.8259 152.205 71.8404 153.709 65.8257" stroke="black" stroke-width="3.32566" stroke-linecap="round" stroke-linejoin="round"/>
<path d="M137.479 166.822C135.812 170.838 131.102 178.358 133.288 182.973C134.626 185.798 139.847 188.328 142.781 186.589C145.662 184.882 144.691 179.208 140.808 181C138.564 182.036 135.738 188.315 135.425 190.822C134.272 200.045 141.037 212.685 151.534 212.685" stroke="black" stroke-width="3.32566" stroke-linecap="round" stroke-linejoin="round"/>
<path d="M103.452 18.8752C98.3533 18.6864 85.8826 15.4898 85.6981 8.8477C85.5854 4.79313 88.2155 2.75568 92.0269 1.69695C96.7518 0.384465 99.753 0.544447 99.753 5.56" stroke="black" stroke-width="1.66283" stroke-linecap="round" stroke-linejoin="round"/>
<path d="M123.724 67.5132C123.724 62.9214 120.001 59.1991 115.41 59.1991C110.818 59.1991 107.095 62.9214 107.095 67.5132" stroke="black" stroke-width="6.65132"/>
<path d="M70.3143 173.801C69.9861 171.971 60.0608 150.331 60.0608 150.331L51.3907 173.801C51.3907 173.801 49.6881 176.745 53.6662 182.075C57.6443 187.406 59.4742 187.078 61.9704 186.252C64.4666 185.427 67.1319 183.438 68.6336 181.28C70.1353 179.122 70.6425 175.631 70.3143 173.801Z" fill="#FFB566"/>
</svg>
